<svg xmlns="http://www.w3.org/2000/svg" version="1.1" xmlns:xlink="http://www.w3.org/1999/xlink" xmlns:svgjs="http://svgjs.com/svgjs" width="1440" height="560" preserveAspectRatio="none" viewBox="0 0 1440 560"><g mask="url(&quot;#SvgjsMask1003&quot;)" fill="none"><rect width="1440" height="560" x="0" y="0" fill="rgba(0, 99, 178, 1)"></rect><path d="M13.03 375.93L77.98 413.43L77.98 488.43L13.03 525.93L-51.92 488.43L-51.92 413.43zM207.89 38.43L272.84 75.93L272.84 150.93L207.89 188.43L142.94 150.93L142.94 75.93zM142.94 375.93L207.89 413.43L207.89 488.43L142.94 525.93L77.98 488.43L77.98 413.43zM207.89 488.43L272.84 525.93L272.84 600.93L207.89 638.43L142.94 600.93L142.94 525.93zM272.84 -74.07L337.8 -36.57L337.8 38.43L272.84 75.93L207.89 38.43L207.89 -36.57zM337.8 263.43L402.75 300.93L402.75 375.93L337.8 413.43L272.84 375.93L272.84 300.93zM402.75 150.93L467.71 188.43L467.71 263.43L402.75 300.93L337.8 263.43L337.8 188.43zM467.71 263.43L532.66 300.93L532.66 375.93L467.71 413.43L402.75 375.93L402.75 300.93zM532.66 -74.07L597.61 -36.57L597.61 38.43L532.66 75.93L467.71 38.43L467.71 -36.57zM597.61 38.43L662.57 75.93L662.57 150.93L597.61 188.43L532.66 150.93L532.66 75.93zM597.61 488.43L662.57 525.93L662.57 600.93L597.61 638.43L532.66 600.93L532.66 525.93zM662.57 -74.07L727.52 -36.57L727.52 38.43L662.57 75.93L597.61 38.43L597.61 -36.57zM727.52 38.43L792.48 75.93L792.48 150.93L727.52 188.43L662.57 150.93L662.57 75.93zM662.57 150.93L727.52 188.43L727.52 263.43L662.57 300.93L597.61 263.43L597.61 188.43zM727.52 488.43L792.48 525.93L792.48 600.93L727.52 638.43L662.57 600.93L662.57 525.93zM792.47 -74.07L857.43 -36.57L857.43 38.43L792.47 75.93L727.52 38.43L727.52 -36.57zM857.43 38.43L922.38 75.93L922.38 150.93L857.43 188.43L792.47 150.93L792.47 75.93zM922.38 -74.07L987.34 -36.57L987.34 38.43L922.38 75.93L857.43 38.43L857.43 -36.57zM987.34 38.43L1052.29 75.93L1052.29 150.93L987.34 188.43L922.38 150.93L922.38 75.93zM1117.24 263.43L1182.2 300.93L1182.2 375.93L1117.24 413.43L1052.29 375.93L1052.29 300.93zM1117.24 488.43L1182.2 525.93L1182.2 600.93L1117.24 638.43L1052.29 600.93L1052.29 525.93zM1312.11 150.93L1377.06 188.43L1377.06 263.43L1312.11 300.93L1247.15 263.43L1247.15 188.43zM1377.06 488.43L1442.01 525.93L1442.01 600.93L1377.06 638.43L1312.11 600.93L1312.11 525.93zM1442.01 -74.07L1506.97 -36.57L1506.97 38.43L1442.01 75.93L1377.06 38.43L1377.06 -36.57zM1506.97 38.43L1571.92 75.93L1571.92 150.93L1506.97 188.43L1442.01 150.93L1442.01 75.93zM1442.01 375.93L1506.97 413.43L1506.97 488.43L1442.01 525.93L1377.06 488.43L1377.06 413.43zM1506.97 488.43L1571.92 525.93L1571.92 600.93L1506.97 638.43L1442.01 600.93L1442.01 525.93z" stroke="rgba(173, 216, 230, 1)" stroke-width="2"></path><path d="M5.53 375.93 a7.5 7.5 0 1 0 15 0 a7.5 7.5 0 1 0 -15 0zM70.48 413.43 a7.5 7.5 0 1 0 15 0 a7.5 7.5 0 1 0 -15 0zM70.48 488.43 a7.5 7.5 0 1 0 15 0 a7.5 7.5 0 1 0 -15 0zM5.53 525.93 a7.5 7.5 0 1 0 15 0 a7.5 7.5 0 1 0 -15 0zM-59.42 488.43 a7.5 7.5 0 1 0 15 0 a7.5 7.5 0 1 0 -15 0zM-59.42 413.43 a7.5 7.5 0 1 0 15 0 a7.5 7.5 0 1 0 -15 0zM200.39 38.43 a7.5 7.5 0 1 0 15 0 a7.5 7.5 0 1 0 -15 0zM265.34 75.93 a7.5 7.5 0 1 0 15 0 a7.5 7.5 0 1 0 -15 0zM265.34 150.93 a7.5 7.5 0 1 0 15 0 a7.5 7.5 0 1 0 -15 0zM200.39 188.43 a7.5 7.5 0 1 0 15 0 a7.5 7.5 0 1 0 -15 0zM135.44 150.93 a7.5 7.5 0 1 0 15 0 a7.5 7.5 0 1 0 -15 0zM135.44 75.93 a7.5 7.5 0 1 0 15 0 a7.5 7.5 0 1 0 -15 0zM135.44 375.93 a7.5 7.5 0 1 0 15 0 a7.5 7.5 0 1 0 -15 0zM200.39 413.43 a7.5 7.5 0 1 0 15 0 a7.5 7.5 0 1 0 -15 0zM200.39 488.43 a7.5 7.5 0 1 0 15 0 a7.5 7.5 0 1 0 -15 0zM135.44 525.93 a7.5 7.5 0 1 0 15 0 a7.5 7.5 0 1 0 -15 0zM265.34 525.93 a7.5 7.5 0 1 0 15 0 a7.5 7.5 0 1 0 -15 0zM265.34 600.93 a7.5 7.5 0 1 0 15 0 a7.5 7.5 0 1 0 -15 0zM200.39 638.43 a7.5 7.5 0 1 0 15 0 a7.5 7.5 0 1 0 -15 0zM135.44 600.93 a7.5 7.5 0 1 0 15 0 a7.5 7.5 0 1 0 -15 0zM265.34 -74.07 a7.5 7.5 0 1 0 15 0 a7.5 7.5 0 1 0 -15 0zM330.3 -36.57 a7.5 7.5 0 1 0 15 0 a7.5 7.5 0 1 0 -15 0zM330.3 38.43 a7.5 7.5 0 1 0 15 0 a7.5 7.5 0 1 0 -15 0zM200.39 -36.57 a7.5 7.5 0 1 0 15 0 a7.5 7.5 0 1 0 -15 0zM330.3 263.43 a7.5 7.5 0 1 0 15 0 a7.5 7.5 0 1 0 -15 0zM395.25 300.93 a7.5 7.5 0 1 0 15 0 a7.5 7.5 0 1 0 -15 0zM395.25 375.93 a7.5 7.5 0 1 0 15 0 a7.5 7.5 0 1 0 -15 0zM330.3 413.43 a7.5 7.5 0 1 0 15 0 a7.5 7.5 0 1 0 -15 0zM265.34 375.93 a7.5 7.5 0 1 0 15 0 a7.5 7.5 0 1 0 -15 0zM265.34 300.93 a7.5 7.5 0 1 0 15 0 a7.5 7.5 0 1 0 -15 0zM395.25 150.93 a7.5 7.5 0 1 0 15 0 a7.5 7.5 0 1 0 -15 0zM460.21 188.43 a7.5 7.5 0 1 0 15 0 a7.5 7.5 0 1 0 -15 0zM460.21 263.43 a7.5 7.5 0 1 0 15 0 a7.5 7.5 0 1 0 -15 0zM330.3 188.43 a7.5 7.5 0 1 0 15 0 a7.5 7.5 0 1 0 -15 0zM525.16 300.93 a7.5 7.5 0 1 0 15 0 a7.5 7.5 0 1 0 -15 0zM525.16 375.93 a7.5 7.5 0 1 0 15 0 a7.5 7.5 0 1 0 -15 0zM460.21 413.43 a7.5 7.5 0 1 0 15 0 a7.5 7.5 0 1 0 -15 0zM525.16 -74.07 a7.5 7.5 0 1 0 15 0 a7.5 7.5 0 1 0 -15 0zM590.11 -36.57 a7.5 7.5 0 1 0 15 0 a7.5 7.5 0 1 0 -15 0zM590.11 38.43 a7.5 7.5 0 1 0 15 0 a7.5 7.5 0 1 0 -15 0zM525.16 75.93 a7.5 7.5 0 1 0 15 0 a7.5 7.5 0 1 0 -15 0zM460.21 38.43 a7.5 7.5 0 1 0 15 0 a7.5 7.5 0 1 0 -15 0zM460.21 -36.57 a7.5 7.5 0 1 0 15 0 a7.5 7.5 0 1 0 -15 0zM655.07 75.93 a7.5 7.5 0 1 0 15 0 a7.5 7.5 0 1 0 -15 0zM655.07 150.93 a7.5 7.5 0 1 0 15 0 a7.5 7.5 0 1 0 -15 0zM590.11 188.43 a7.5 7.5 0 1 0 15 0 a7.5 7.5 0 1 0 -15 0zM525.16 150.93 a7.5 7.5 0 1 0 15 0 a7.5 7.5 0 1 0 -15 0zM590.11 488.43 a7.5 7.5 0 1 0 15 0 a7.5 7.5 0 1 0 -15 0zM655.07 525.93 a7.5 7.5 0 1 0 15 0 a7.5 7.5 0 1 0 -15 0zM655.07 600.93 a7.5 7.5 0 1 0 15 0 a7.5 7.5 0 1 0 -15 0zM590.11 638.43 a7.5 7.5 0 1 0 15 0 a7.5 7.5 0 1 0 -15 0zM525.16 600.93 a7.5 7.5 0 1 0 15 0 a7.5 7.5 0 1 0 -15 0zM525.16 525.93 a7.5 7.5 0 1 0 15 0 a7.5 7.5 0 1 0 -15 0zM655.07 -74.07 a7.5 7.5 0 1 0 15 0 a7.5 7.5 0 1 0 -15 0zM720.02 -36.57 a7.5 7.5 0 1 0 15 0 a7.5 7.5 0 1 0 -15 0zM720.02 38.43 a7.5 7.5 0 1 0 15 0 a7.5 7.5 0 1 0 -15 0zM784.98 75.93 a7.5 7.5 0 1 0 15 0 a7.5 7.5 0 1 0 -15 0zM784.98 150.93 a7.5 7.5 0 1 0 15 0 a7.5 7.5 0 1 0 -15 0zM720.02 188.43 a7.5 7.5 0 1 0 15 0 a7.5 7.5 0 1 0 -15 0zM720.02 263.43 a7.5 7.5 0 1 0 15 0 a7.5 7.5 0 1 0 -15 0zM655.07 300.93 a7.5 7.5 0 1 0 15 0 a7.5 7.5 0 1 0 -15 0zM590.11 263.43 a7.5 7.5 0 1 0 15 0 a7.5 7.5 0 1 0 -15 0zM720.02 488.43 a7.5 7.5 0 1 0 15 0 a7.5 7.5 0 1 0 -15 0zM784.98 525.93 a7.5 7.5 0 1 0 15 0 a7.5 7.5 0 1 0 -15 0zM784.98 600.93 a7.5 7.5 0 1 0 15 0 a7.5 7.5 0 1 0 -15 0zM720.02 638.43 a7.5 7.5 0 1 0 15 0 a7.5 7.5 0 1 0 -15 0zM784.97 -74.07 a7.5 7.5 0 1 0 15 0 a7.5 7.5 0 1 0 -15 0zM849.93 -36.57 a7.5 7.5 0 1 0 15 0 a7.5 7.5 0 1 0 -15 0zM849.93 38.43 a7.5 7.5 0 1 0 15 0 a7.5 7.5 0 1 0 -15 0zM784.97 75.93 a7.5 7.5 0 1 0 15 0 a7.5 7.5 0 1 0 -15 0zM914.88 75.93 a7.5 7.5 0 1 0 15 0 a7.5 7.5 0 1 0 -15 0zM914.88 150.93 a7.5 7.5 0 1 0 15 0 a7.5 7.5 0 1 0 -15 0zM849.93 188.43 a7.5 7.5 0 1 0 15 0 a7.5 7.5 0 1 0 -15 0zM784.97 150.93 a7.5 7.5 0 1 0 15 0 a7.5 7.5 0 1 0 -15 0zM914.88 -74.07 a7.5 7.5 0 1 0 15 0 a7.5 7.5 0 1 0 -15 0zM979.84 -36.57 a7.5 7.5 0 1 0 15 0 a7.5 7.5 0 1 0 -15 0zM979.84 38.43 a7.5 7.5 0 1 0 15 0 a7.5 7.5 0 1 0 -15 0zM1044.79 75.93 a7.5 7.5 0 1 0 15 0 a7.5 7.5 0 1 0 -15 0zM1044.79 150.93 a7.5 7.5 0 1 0 15 0 a7.5 7.5 0 1 0 -15 0zM979.84 188.43 a7.5 7.5 0 1 0 15 0 a7.5 7.5 0 1 0 -15 0zM1109.74 263.43 a7.5 7.5 0 1 0 15 0 a7.5 7.5 0 1 0 -15 0zM1174.7 300.93 a7.5 7.5 0 1 0 15 0 a7.5 7.5 0 1 0 -15 0zM1174.7 375.93 a7.5 7.5 0 1 0 15 0 a7.5 7.5 0 1 0 -15 0zM1109.74 413.43 a7.5 7.5 0 1 0 15 0 a7.5 7.5 0 1 0 -15 0zM1044.79 375.93 a7.5 7.5 0 1 0 15 0 a7.5 7.5 0 1 0 -15 0zM1044.79 300.93 a7.5 7.5 0 1 0 15 0 a7.5 7.5 0 1 0 -15 0zM1109.74 488.43 a7.5 7.5 0 1 0 15 0 a7.5 7.5 0 1 0 -15 0zM1174.7 525.93 a7.5 7.5 0 1 0 15 0 a7.5 7.5 0 1 0 -15 0zM1174.7 600.93 a7.5 7.5 0 1 0 15 0 a7.5 7.5 0 1 0 -15 0zM1109.74 638.43 a7.5 7.5 0 1 0 15 0 a7.5 7.5 0 1 0 -15 0zM1044.79 600.93 a7.5 7.5 0 1 0 15 0 a7.5 7.5 0 1 0 -15 0zM1044.79 525.93 a7.5 7.5 0 1 0 15 0 a7.5 7.5 0 1 0 -15 0zM1304.61 150.93 a7.5 7.5 0 1 0 15 0 a7.5 7.5 0 1 0 -15 0zM1369.56 188.43 a7.5 7.5 0 1 0 15 0 a7.5 7.5 0 1 0 -15 0zM1369.56 263.43 a7.5 7.5 0 1 0 15 0 a7.5 7.5 0 1 0 -15 0zM1304.61 300.93 a7.5 7.5 0 1 0 15 0 a7.5 7.5 0 1 0 -15 0zM1239.65 263.43 a7.5 7.5 0 1 0 15 0 a7.5 7.5 0 1 0 -15 0zM1239.65 188.43 a7.5 7.5 0 1 0 15 0 a7.5 7.5 0 1 0 -15 0zM1369.56 488.43 a7.5 7.5 0 1 0 15 0 a7.5 7.5 0 1 0 -15 0zM1434.51 525.93 a7.5 7.5 0 1 0 15 0 a7.5 7.5 0 1 0 -15 0zM1434.51 600.93 a7.5 7.5 0 1 0 15 0 a7.5 7.5 0 1 0 -15 0zM1369.56 638.43 a7.5 7.5 0 1 0 15 0 a7.5 7.5 0 1 0 -15 0zM1304.61 600.93 a7.5 7.5 0 1 0 15 0 a7.5 7.5 0 1 0 -15 0zM1304.61 525.93 a7.5 7.5 0 1 0 15 0 a7.5 7.5 0 1 0 -15 0zM1434.51 -74.07 a7.5 7.5 0 1 0 15 0 a7.5 7.5 0 1 0 -15 0zM1499.47 -36.57 a7.5 7.5 0 1 0 15 0 a7.5 7.5 0 1 0 -15 0zM1499.47 38.43 a7.5 7.5 0 1 0 15 0 a7.5 7.5 0 1 0 -15 0zM1434.51 75.93 a7.5 7.5 0 1 0 15 0 a7.5 7.5 0 1 0 -15 0zM1369.56 38.43 a7.5 7.5 0 1 0 15 0 a7.5 7.5 0 1 0 -15 0zM1369.56 -36.57 a7.5 7.5 0 1 0 15 0 a7.5 7.5 0 1 0 -15 0zM1564.42 75.93 a7.5 7.5 0 1 0 15 0 a7.5 7.5 0 1 0 -15 0zM1564.42 150.93 a7.5 7.5 0 1 0 15 0 a7.5 7.5 0 1 0 -15 0zM1499.47 188.43 a7.5 7.5 0 1 0 15 0 a7.5 7.5 0 1 0 -15 0zM1434.51 150.93 a7.5 7.5 0 1 0 15 0 a7.5 7.5 0 1 0 -15 0zM1434.51 375.93 a7.5 7.5 0 1 0 15 0 a7.5 7.5 0 1 0 -15 0zM1499.47 413.43 a7.5 7.5 0 1 0 15 0 a7.5 7.5 0 1 0 -15 0zM1499.47 488.43 a7.5 7.5 0 1 0 15 0 a7.5 7.5 0 1 0 -15 0zM1369.56 413.43 a7.5 7.5 0 1 0 15 0 a7.5 7.5 0 1 0 -15 0zM1564.42 525.93 a7.5 7.5 0 1 0 15 0 a7.5 7.5 0 1 0 -15 0zM1564.42 600.93 a7.5 7.5 0 1 0 15 0 a7.5 7.5 0 1 0 -15 0zM1499.47 638.43 a7.5 7.5 0 1 0 15 0 a7.5 7.5 0 1 0 -15 0z" fill="rgba(173, 216, 230, 1)"></path><path d="M28.34 140.65L71.64 165.65L71.64 215.65L28.34 240.65L-14.96 215.65L-14.96 165.65zM114.95 -9.35L158.25 15.65L158.25 65.65L114.95 90.65L71.64 65.65L71.64 15.65zM114.95 290.65L158.25 315.65L158.25 365.65L114.95 390.65L71.64 365.65L71.64 315.65zM158.25 365.65L201.55 390.65L201.55 440.65L158.25 465.65L114.95 440.65L114.95 390.65zM114.95 440.65L158.25 465.65L158.25 515.65L114.95 540.65L71.64 515.65L71.64 465.65zM244.85 65.65L288.15 90.65L288.15 140.65L244.85 165.65L201.55 140.65L201.55 90.65zM201.55 290.65L244.85 315.65L244.85 365.65L201.55 390.65L158.25 365.65L158.25 315.65zM244.85 515.65L288.15 540.65L288.15 590.65L244.85 615.65L201.55 590.65L201.55 540.65zM288.15 -9.35L331.46 15.65L331.46 65.65L288.15 90.65L244.85 65.65L244.85 15.65zM331.46 65.65L374.76 90.65L374.76 140.65L331.46 165.65L288.15 140.65L288.15 90.65zM288.15 290.65L331.46 315.65L331.46 365.65L288.15 390.65L244.85 365.65L244.85 315.65zM288.15 440.65L331.46 465.65L331.46 515.65L288.15 540.65L244.85 515.65L244.85 465.65zM374.76 -9.35L418.06 15.65L418.06 65.65L374.76 90.65L331.46 65.65L331.46 15.65zM418.06 65.65L461.37 90.65L461.37 140.65L418.06 165.65L374.76 140.65L374.76 90.65zM418.06 215.65L461.37 240.65L461.37 290.65L418.06 315.65L374.76 290.65L374.76 240.65zM374.76 440.65L418.06 465.65L418.06 515.65L374.76 540.65L331.46 515.65L331.46 465.65zM504.67 515.65L547.97 540.65L547.97 590.65L504.67 615.65L461.37 590.65L461.37 540.65zM547.97 -9.35L591.27 15.65L591.27 65.65L547.97 90.65L504.67 65.65L504.67 15.65zM591.27 65.65L634.58 90.65L634.58 140.65L591.27 165.65L547.97 140.65L547.97 90.65zM547.97 290.65L591.27 315.65L591.27 365.65L547.97 390.65L504.67 365.65L504.67 315.65zM591.27 365.65L634.58 390.65L634.58 440.65L591.27 465.65L547.97 440.65L547.97 390.65zM677.88 65.65L721.18 90.65L721.18 140.65L677.88 165.65L634.58 140.65L634.58 90.65zM634.58 140.65L677.88 165.65L677.88 215.65L634.58 240.65L591.27 215.65L591.27 165.65zM634.58 290.65L677.88 315.65L677.88 365.65L634.58 390.65L591.27 365.65L591.27 315.65zM764.48 65.65L807.79 90.65L807.79 140.65L764.48 165.65L721.18 140.65L721.18 90.65zM764.48 515.65L807.79 540.65L807.79 590.65L764.48 615.65L721.18 590.65L721.18 540.65zM807.79 -9.35L851.09 15.65L851.09 65.65L807.79 90.65L764.48 65.65L764.48 15.65zM807.79 290.65L851.09 315.65L851.09 365.65L807.79 390.65L764.48 365.65L764.48 315.65zM851.09 365.65L894.39 390.65L894.39 440.65L851.09 465.65L807.79 440.65L807.79 390.65zM807.79 440.65L851.09 465.65L851.09 515.65L807.79 540.65L764.48 515.65L764.48 465.65zM937.69 65.65L981 90.65L981 140.65L937.69 165.65L894.39 140.65L894.39 90.65zM894.39 140.65L937.69 165.65L937.69 215.65L894.39 240.65L851.09 215.65L851.09 165.65zM937.69 215.65L981 240.65L981 290.65L937.69 315.65L894.39 290.65L894.39 240.65zM937.69 515.65L981 540.65L981 590.65L937.69 615.65L894.39 590.65L894.39 540.65zM981 -9.35L1024.3 15.65L1024.3 65.65L981 90.65L937.69 65.65L937.69 15.65zM1024.3 215.65L1067.6 240.65L1067.6 290.65L1024.3 315.65L981 290.65L981 240.65zM1024.3 365.65L1067.6 390.65L1067.6 440.65L1024.3 465.65L981 440.65L981 390.65zM1067.6 140.65L1110.9 165.65L1110.9 215.65L1067.6 240.65L1024.3 215.65L1024.3 165.65zM1067.6 290.65L1110.9 315.65L1110.9 365.65L1067.6 390.65L1024.3 365.65L1024.3 315.65zM1110.9 515.65L1154.2 540.65L1154.2 590.65L1110.9 615.65L1067.6 590.65L1067.6 540.65zM1154.2 140.65L1197.51 165.65L1197.51 215.65L1154.2 240.65L1110.9 215.65L1110.9 165.65zM1197.51 215.65L1240.81 240.65L1240.81 290.65L1197.51 315.65L1154.2 290.65L1154.2 240.65zM1240.81 140.65L1284.11 165.65L1284.11 215.65L1240.81 240.65L1197.51 215.65L1197.51 165.65zM1284.11 365.65L1327.41 390.65L1327.41 440.65L1284.11 465.65L1240.81 440.65L1240.81 390.65zM1327.41 -9.35L1370.72 15.65L1370.72 65.65L1327.41 90.65L1284.11 65.65L1284.11 15.65zM1370.72 65.65L1414.02 90.65L1414.02 140.65L1370.72 165.65L1327.41 140.65L1327.41 90.65zM1327.41 140.65L1370.72 165.65L1370.72 215.65L1327.41 240.65L1284.11 215.65L1284.11 165.65zM1370.72 215.65L1414.02 240.65L1414.02 290.65L1370.72 315.65L1327.41 290.65L1327.41 240.65zM1327.41 290.65L1370.72 315.65L1370.72 365.65L1327.41 390.65L1284.11 365.65L1284.11 315.65zM1370.72 365.65L1414.02 390.65L1414.02 440.65L1370.72 465.65L1327.41 440.65L1327.41 390.65zM1327.41 440.65L1370.72 465.65L1370.72 515.65L1327.41 540.65L1284.11 515.65L1284.11 465.65zM1370.72 515.65L1414.02 540.65L1414.02 590.65L1370.72 615.65L1327.41 590.65L1327.41 540.65zM1414.02 140.65L1457.32 165.65L1457.32 215.65L1414.02 240.65L1370.72 215.65L1370.72 165.65zM1414.02 290.65L1457.32 315.65L1457.32 365.65L1414.02 390.65L1370.72 365.65L1370.72 315.65zM1457.32 365.65L1500.63 390.65L1500.63 440.65L1457.32 465.65L1414.02 440.65L1414.02 390.65zM1457.32 515.65L1500.63 540.65L1500.63 590.65L1457.32 615.65L1414.02 590.65L1414.02 540.65z" stroke="rgba(102, 204, 255, 1)" stroke-width="2"></path></g><defs><mask id="SvgjsMask1003"><rect width="1440" height="560" fill="#ffffff"></rect></mask></defs></svg>