<svg xmlns="http://www.w3.org/2000/svg" version="1.1" xmlns:xlink="http://www.w3.org/1999/xlink" xmlns:svgjs="http://svgjs.com/svgjs" width="1440" height="560" preserveAspectRatio="none" viewBox="0 0 1440 560"><g mask="url(&quot;#SvgjsMask1010&quot;)" fill="none"><rect width="1440" height="560" x="0" y="0" fill="rgba(0, 99, 178, 1)"></rect><path d="M-94.23 340.98L-94.23 340.98" stroke="rgba(26, 35, 126, 1)" stroke-width="1.5"></path><path d="M-94.23 340.98L47.73 372.22" stroke="rgba(26, 35, 126, 1)" stroke-width="1.5"></path><path d="M-94.23 340.98L-67.68 493.49" stroke="rgba(26, 35, 126, 1)" stroke-width="1.5"></path><path d="M-94.23 340.98L55.5 530.08" stroke="rgba(26, 35, 126, 1)" stroke-width="1.5"></path><path d="M-94.23 340.98L231.95 382.97" stroke="rgba(26, 35, 126, 1)" stroke-width="1.5"></path><path d="M-94.23 340.98L221.16 495.91" stroke="rgba(26, 35, 126, 1)" stroke-width="1.5"></path><path d="M-94.23 340.98L-39.41 707.62" stroke="rgba(26, 35, 126, 1)" stroke-width="1.5"></path><path d="M-67.68 493.49L-67.68 493.49" stroke="rgba(26, 35, 126, 1)" stroke-width="1.5"></path><path d="M-67.68 493.49L55.5 530.08" stroke="rgba(26, 35, 126, 1)" stroke-width="1.5"></path><path d="M-67.68 493.49L47.73 372.22" stroke="rgba(26, 35, 126, 1)" stroke-width="1.5"></path><path d="M-67.68 493.49L-39.41 707.62" stroke="rgba(26, 35, 126, 1)" stroke-width="1.5"></path><path d="M-67.68 493.49L44.72 704.85" stroke="rgba(26, 35, 126, 1)" stroke-width="1.5"></path><path d="M-39.41 707.62L-39.41 707.62" stroke="rgba(26, 35, 126, 1)" stroke-width="1.5"></path><path d="M-39.41 707.62L44.72 704.85" stroke="rgba(26, 35, 126, 1)" stroke-width="1.5"></path><path d="M-39.41 707.62L55.5 530.08" stroke="rgba(26, 35, 126, 1)" stroke-width="1.5"></path><path d="M-39.41 707.62L217.85 705.81" stroke="rgba(26, 35, 126, 1)" stroke-width="1.5"></path><path d="M-39.41 707.62L221.16 495.91" stroke="rgba(26, 35, 126, 1)" stroke-width="1.5"></path><path d="M-39.41 707.62L47.73 372.22" stroke="rgba(26, 35, 126, 1)" stroke-width="1.5"></path><path d="M47.73 372.22L47.73 372.22" stroke="rgba(26, 35, 126, 1)" stroke-width="1.5"></path><path d="M47.73 372.22L55.5 530.08" stroke="rgba(26, 35, 126, 1)" stroke-width="1.5"></path><path d="M47.73 372.22L231.95 382.97" stroke="rgba(26, 35, 126, 1)" stroke-width="1.5"></path><path d="M55.5 530.08L55.5 530.08" stroke="rgba(26, 35, 126, 1)" stroke-width="1.5"></path><path d="M55.5 530.08L221.16 495.91" stroke="rgba(26, 35, 126, 1)" stroke-width="1.5"></path><path d="M44.72 704.85L44.72 704.85" stroke="rgba(26, 35, 126, 1)" stroke-width="1.5"></path><path d="M44.72 704.85L217.85 705.81" stroke="rgba(26, 35, 126, 1)" stroke-width="1.5"></path><path d="M44.72 704.85L55.5 530.08" stroke="rgba(26, 35, 126, 1)" stroke-width="1.5"></path><path d="M231.95 382.97L231.95 382.97" stroke="rgba(26, 35, 126, 1)" stroke-width="1.5"></path><path d="M231.95 382.97L221.16 495.91" stroke="rgba(26, 35, 126, 1)" stroke-width="1.5"></path><path d="M231.95 382.97L342.61 493.14" stroke="rgba(26, 35, 126, 1)" stroke-width="1.5"></path><path d="M221.16 495.91L221.16 495.91" stroke="rgba(26, 35, 126, 1)" stroke-width="1.5"></path><path d="M221.16 495.91L342.61 493.14" stroke="rgba(26, 35, 126, 1)" stroke-width="1.5"></path><path d="M217.85 705.81L217.85 705.81" stroke="rgba(26, 35, 126, 1)" stroke-width="1.5"></path><path d="M217.85 705.81L341.84 638.27" stroke="rgba(26, 35, 126, 1)" stroke-width="1.5"></path><path d="M217.85 705.81L221.16 495.91" stroke="rgba(26, 35, 126, 1)" stroke-width="1.5"></path><path d="M393.05 341.81L393.05 341.81" stroke="rgba(26, 35, 126, 1)" stroke-width="1.5"></path><path d="M393.05 341.81L342.61 493.14" stroke="rgba(26, 35, 126, 1)" stroke-width="1.5"></path><path d="M393.05 341.81L231.95 382.97" stroke="rgba(26, 35, 126, 1)" stroke-width="1.5"></path><path d="M393.05 341.81L221.16 495.91" stroke="rgba(26, 35, 126, 1)" stroke-width="1.5"></path><path d="M393.05 341.81L645.72 370.58" stroke="rgba(26, 35, 126, 1)" stroke-width="1.5"></path><path d="M393.05 341.81L529.5 557.54" stroke="rgba(26, 35, 126, 1)" stroke-width="1.5"></path><path d="M393.05 341.81L341.84 638.27" stroke="rgba(26, 35, 126, 1)" stroke-width="1.5"></path><path d="M342.61 493.14L342.61 493.14" stroke="rgba(26, 35, 126, 1)" stroke-width="1.5"></path><path d="M342.61 493.14L341.84 638.27" stroke="rgba(26, 35, 126, 1)" stroke-width="1.5"></path><path d="M341.84 638.27L341.84 638.27" stroke="rgba(26, 35, 126, 1)" stroke-width="1.5"></path><path d="M341.84 638.27L511.06 665.69" stroke="rgba(26, 35, 126, 1)" stroke-width="1.5"></path><path d="M529.5 557.54L529.5 557.54" stroke="rgba(26, 35, 126, 1)" stroke-width="1.5"></path><path d="M529.5 557.54L511.06 665.69" stroke="rgba(26, 35, 126, 1)" stroke-width="1.5"></path><path d="M529.5 557.54L695.42 495.38" stroke="rgba(26, 35, 126, 1)" stroke-width="1.5"></path><path d="M529.5 557.54L342.61 493.14" stroke="rgba(26, 35, 126, 1)" stroke-width="1.5"></path><path d="M511.06 665.69L511.06 665.69" stroke="rgba(26, 35, 126, 1)" stroke-width="1.5"></path><path d="M645.72 370.58L645.72 370.58" stroke="rgba(26, 35, 126, 1)" stroke-width="1.5"></path><path d="M645.72 370.58L695.42 495.38" stroke="rgba(26, 35, 126, 1)" stroke-width="1.5"></path><path d="M645.72 370.58L827.38 369.56" stroke="rgba(26, 35, 126, 1)" stroke-width="1.5"></path><path d="M645.72 370.58L787.86 525.71" stroke="rgba(26, 35, 126, 1)" stroke-width="1.5"></path><path d="M645.72 370.58L529.5 557.54" stroke="rgba(26, 35, 126, 1)" stroke-width="1.5"></path><path d="M645.72 370.58L851.73 244.09" stroke="rgba(26, 35, 126, 1)" stroke-width="1.5"></path><path d="M695.42 495.38L695.42 495.38" stroke="rgba(26, 35, 126, 1)" stroke-width="1.5"></path><path d="M695.42 495.38L787.86 525.71" stroke="rgba(26, 35, 126, 1)" stroke-width="1.5"></path><path d="M695.42 495.38L827.38 369.56" stroke="rgba(26, 35, 126, 1)" stroke-width="1.5"></path><path d="M695.42 495.38L684.55 689.11" stroke="rgba(26, 35, 126, 1)" stroke-width="1.5"></path><path d="M684.55 689.11L684.55 689.11" stroke="rgba(26, 35, 126, 1)" stroke-width="1.5"></path><path d="M684.55 689.11L820.35 696.41" stroke="rgba(26, 35, 126, 1)" stroke-width="1.5"></path><path d="M684.55 689.11L511.06 665.69" stroke="rgba(26, 35, 126, 1)" stroke-width="1.5"></path><path d="M851.73 244.09L851.73 244.09" stroke="rgba(26, 35, 126, 1)" stroke-width="1.5"></path><path d="M851.73 244.09L947.77 261.5" stroke="rgba(26, 35, 126, 1)" stroke-width="1.5"></path><path d="M851.73 244.09L827.38 369.56" stroke="rgba(26, 35, 126, 1)" stroke-width="1.5"></path><path d="M851.73 244.09L984.45 348.76" stroke="rgba(26, 35, 126, 1)" stroke-width="1.5"></path><path d="M827.38 369.56L827.38 369.56" stroke="rgba(26, 35, 126, 1)" stroke-width="1.5"></path><path d="M827.38 369.56L984.45 348.76" stroke="rgba(26, 35, 126, 1)" stroke-width="1.5"></path><path d="M827.38 369.56L787.86 525.71" stroke="rgba(26, 35, 126, 1)" stroke-width="1.5"></path><path d="M827.38 369.56L947.77 261.5" stroke="rgba(26, 35, 126, 1)" stroke-width="1.5"></path><path d="M787.86 525.71L787.86 525.71" stroke="rgba(26, 35, 126, 1)" stroke-width="1.5"></path><path d="M820.35 696.41L820.35 696.41" stroke="rgba(26, 35, 126, 1)" stroke-width="1.5"></path><path d="M820.35 696.41L967.28 681.6" stroke="rgba(26, 35, 126, 1)" stroke-width="1.5"></path><path d="M820.35 696.41L787.86 525.71" stroke="rgba(26, 35, 126, 1)" stroke-width="1.5"></path><path d="M1004.6 -66.74L1004.6 -66.74" stroke="rgba(26, 35, 126, 1)" stroke-width="1.5"></path><path d="M1004.6 -66.74L1094.02 -94.43" stroke="rgba(26, 35, 126, 1)" stroke-width="1.5"></path><path d="M1004.6 -66.74L1100.5 82.6" stroke="rgba(26, 35, 126, 1)" stroke-width="1.5"></path><path d="M1004.6 -66.74L1256.56 -103.9" stroke="rgba(26, 35, 126, 1)" stroke-width="1.5"></path><path d="M1004.6 -66.74L1275.76 77.11" stroke="rgba(26, 35, 126, 1)" stroke-width="1.5"></path><path d="M1004.6 -66.74L1112.62 237.37" stroke="rgba(26, 35, 126, 1)" stroke-width="1.5"></path><path d="M1004.6 -66.74L947.77 261.5" stroke="rgba(26, 35, 126, 1)" stroke-width="1.5"></path><path d="M947.77 261.5L947.77 261.5" stroke="rgba(26, 35, 126, 1)" stroke-width="1.5"></path><path d="M947.77 261.5L984.45 348.76" stroke="rgba(26, 35, 126, 1)" stroke-width="1.5"></path><path d="M947.77 261.5L1112.62 237.37" stroke="rgba(26, 35, 126, 1)" stroke-width="1.5"></path><path d="M947.77 261.5L1118.34 342.86" stroke="rgba(26, 35, 126, 1)" stroke-width="1.5"></path><path d="M947.77 261.5L1100.5 82.6" stroke="rgba(26, 35, 126, 1)" stroke-width="1.5"></path><path d="M984.45 348.76L984.45 348.76" stroke="rgba(26, 35, 126, 1)" stroke-width="1.5"></path><path d="M984.45 348.76L1118.34 342.86" stroke="rgba(26, 35, 126, 1)" stroke-width="1.5"></path><path d="M984.45 348.76L1112.62 237.37" stroke="rgba(26, 35, 126, 1)" stroke-width="1.5"></path><path d="M943.6 548.92L943.6 548.92" stroke="rgba(26, 35, 126, 1)" stroke-width="1.5"></path><path d="M943.6 548.92L967.28 681.6" stroke="rgba(26, 35, 126, 1)" stroke-width="1.5"></path><path d="M943.6 548.92L787.86 525.71" stroke="rgba(26, 35, 126, 1)" stroke-width="1.5"></path><path d="M943.6 548.92L1126.03 528.86" stroke="rgba(26, 35, 126, 1)" stroke-width="1.5"></path><path d="M943.6 548.92L820.35 696.41" stroke="rgba(26, 35, 126, 1)" stroke-width="1.5"></path><path d="M967.28 681.6L967.28 681.6" stroke="rgba(26, 35, 126, 1)" stroke-width="1.5"></path><path d="M967.28 681.6L1149.35 706.54" stroke="rgba(26, 35, 126, 1)" stroke-width="1.5"></path><path d="M967.28 681.6L1126.03 528.86" stroke="rgba(26, 35, 126, 1)" stroke-width="1.5"></path><path d="M967.28 681.6L787.86 525.71" stroke="rgba(26, 35, 126, 1)" stroke-width="1.5"></path><path d="M967.28 681.6L1242.45 702.44" stroke="rgba(26, 35, 126, 1)" stroke-width="1.5"></path><path d="M1094.02 -94.43L1094.02 -94.43" stroke="rgba(26, 35, 126, 1)" stroke-width="1.5"></path><path d="M1094.02 -94.43L1256.56 -103.9" stroke="rgba(26, 35, 126, 1)" stroke-width="1.5"></path><path d="M1100.5 82.6L1100.5 82.6" stroke="rgba(26, 35, 126, 1)" stroke-width="1.5"></path><path d="M1100.5 82.6L1112.62 237.37" stroke="rgba(26, 35, 126, 1)" stroke-width="1.5"></path><path d="M1100.5 82.6L1275.76 77.11" stroke="rgba(26, 35, 126, 1)" stroke-width="1.5"></path><path d="M1112.62 237.37L1112.62 237.37" stroke="rgba(26, 35, 126, 1)" stroke-width="1.5"></path><path d="M1112.62 237.37L1118.34 342.86" stroke="rgba(26, 35, 126, 1)" stroke-width="1.5"></path><path d="M1112.62 237.37L1312.06 262.03" stroke="rgba(26, 35, 126, 1)" stroke-width="1.5"></path><path d="M1118.34 342.86L1118.34 342.86" stroke="rgba(26, 35, 126, 1)" stroke-width="1.5"></path><path d="M1118.34 342.86L1126.03 528.86" stroke="rgba(26, 35, 126, 1)" stroke-width="1.5"></path><path d="M1126.03 528.86L1126.03 528.86" stroke="rgba(26, 35, 126, 1)" stroke-width="1.5"></path><path d="M1126.03 528.86L1296.91 519.57" stroke="rgba(26, 35, 126, 1)" stroke-width="1.5"></path><path d="M1126.03 528.86L1149.35 706.54" stroke="rgba(26, 35, 126, 1)" stroke-width="1.5"></path><path d="M1126.03 528.86L1242.45 702.44" stroke="rgba(26, 35, 126, 1)" stroke-width="1.5"></path><path d="M1149.35 706.54L1149.35 706.54" stroke="rgba(26, 35, 126, 1)" stroke-width="1.5"></path><path d="M1149.35 706.54L1242.45 702.44" stroke="rgba(26, 35, 126, 1)" stroke-width="1.5"></path><path d="M1256.56 -103.9L1256.56 -103.9" stroke="rgba(26, 35, 126, 1)" stroke-width="1.5"></path><path d="M1256.56 -103.9L1414.47 -105.18" stroke="rgba(26, 35, 126, 1)" stroke-width="1.5"></path><path d="M1256.56 -103.9L1275.76 77.11" stroke="rgba(26, 35, 126, 1)" stroke-width="1.5"></path><path d="M1256.56 -103.9L1100.5 82.6" stroke="rgba(26, 35, 126, 1)" stroke-width="1.5"></path><path d="M1275.76 77.11L1275.76 77.11" stroke="rgba(26, 35, 126, 1)" stroke-width="1.5"></path><path d="M1275.76 77.11L1419.96 108.47" stroke="rgba(26, 35, 126, 1)" stroke-width="1.5"></path><path d="M1275.76 77.11L1312.06 262.03" stroke="rgba(26, 35, 126, 1)" stroke-width="1.5"></path><path d="M1275.76 77.11L1112.62 237.37" stroke="rgba(26, 35, 126, 1)" stroke-width="1.5"></path><path d="M1312.06 262.03L1312.06 262.03" stroke="rgba(26, 35, 126, 1)" stroke-width="1.5"></path><path d="M1312.06 262.03L1305.34 359.95" stroke="rgba(26, 35, 126, 1)" stroke-width="1.5"></path><path d="M1312.06 262.03L1417.08 261.44" stroke="rgba(26, 35, 126, 1)" stroke-width="1.5"></path><path d="M1312.06 262.03L1403.99 406.46" stroke="rgba(26, 35, 126, 1)" stroke-width="1.5"></path><path d="M1305.34 359.95L1305.34 359.95" stroke="rgba(26, 35, 126, 1)" stroke-width="1.5"></path><path d="M1305.34 359.95L1403.99 406.46" stroke="rgba(26, 35, 126, 1)" stroke-width="1.5"></path><path d="M1305.34 359.95L1417.08 261.44" stroke="rgba(26, 35, 126, 1)" stroke-width="1.5"></path><path d="M1296.91 519.57L1296.91 519.57" stroke="rgba(26, 35, 126, 1)" stroke-width="1.5"></path><path d="M1296.91 519.57L1403.99 406.46" stroke="rgba(26, 35, 126, 1)" stroke-width="1.5"></path><path d="M1296.91 519.57L1305.34 359.95" stroke="rgba(26, 35, 126, 1)" stroke-width="1.5"></path><path d="M1242.45 702.44L1242.45 702.44" stroke="rgba(26, 35, 126, 1)" stroke-width="1.5"></path><path d="M1242.45 702.44L1423.98 683.52" stroke="rgba(26, 35, 126, 1)" stroke-width="1.5"></path><path d="M1242.45 702.44L1296.91 519.57" stroke="rgba(26, 35, 126, 1)" stroke-width="1.5"></path><path d="M1414.47 -105.18L1414.47 -105.18" stroke="rgba(26, 35, 126, 1)" stroke-width="1.5"></path><path d="M1414.47 -105.18L1551.9 -53.84" stroke="rgba(26, 35, 126, 1)" stroke-width="1.5"></path><path d="M1414.47 -105.18L1419.96 108.47" stroke="rgba(26, 35, 126, 1)" stroke-width="1.5"></path><path d="M1414.47 -105.18L1275.76 77.11" stroke="rgba(26, 35, 126, 1)" stroke-width="1.5"></path><path d="M1414.47 -105.18L1609.84 75.76" stroke="rgba(26, 35, 126, 1)" stroke-width="1.5"></path><path d="M1414.47 -105.18L1094.02 -94.43" stroke="rgba(26, 35, 126, 1)" stroke-width="1.5"></path><path d="M1419.96 108.47L1419.96 108.47" stroke="rgba(26, 35, 126, 1)" stroke-width="1.5"></path><path d="M1419.96 108.47L1417.08 261.44" stroke="rgba(26, 35, 126, 1)" stroke-width="1.5"></path><path d="M1419.96 108.47L1312.06 262.03" stroke="rgba(26, 35, 126, 1)" stroke-width="1.5"></path><path d="M1419.96 108.47L1609.84 75.76" stroke="rgba(26, 35, 126, 1)" stroke-width="1.5"></path><path d="M1417.08 261.44L1417.08 261.44" stroke="rgba(26, 35, 126, 1)" stroke-width="1.5"></path><path d="M1417.08 261.44L1403.99 406.46" stroke="rgba(26, 35, 126, 1)" stroke-width="1.5"></path><path d="M1403.99 406.46L1403.99 406.46" stroke="rgba(26, 35, 126, 1)" stroke-width="1.5"></path><path d="M1423.98 683.52L1423.98 683.52" stroke="rgba(26, 35, 126, 1)" stroke-width="1.5"></path><path d="M1423.98 683.52L1551.33 642.07" stroke="rgba(26, 35, 126, 1)" stroke-width="1.5"></path><path d="M1551.9 -53.84L1551.9 -53.84" stroke="rgba(26, 35, 126, 1)" stroke-width="1.5"></path><path d="M1551.9 -53.84L1609.84 75.76" stroke="rgba(26, 35, 126, 1)" stroke-width="1.5"></path><path d="M1551.9 -53.84L1419.96 108.47" stroke="rgba(26, 35, 126, 1)" stroke-width="1.5"></path><path d="M1551.9 -53.84L1595.14 192.28" stroke="rgba(26, 35, 126, 1)" stroke-width="1.5"></path><path d="M1551.9 -53.84L1256.56 -103.9" stroke="rgba(26, 35, 126, 1)" stroke-width="1.5"></path><path d="M1609.84 75.76L1609.84 75.76" stroke="rgba(26, 35, 126, 1)" stroke-width="1.5"></path><path d="M1609.84 75.76L1595.14 192.28" stroke="rgba(26, 35, 126, 1)" stroke-width="1.5"></path><path d="M1595.14 192.28L1595.14 192.28" stroke="rgba(26, 35, 126, 1)" stroke-width="1.5"></path><path d="M1595.14 192.28L1417.08 261.44" stroke="rgba(26, 35, 126, 1)" stroke-width="1.5"></path><path d="M1595.14 192.28L1419.96 108.47" stroke="rgba(26, 35, 126, 1)" stroke-width="1.5"></path><path d="M1595.14 192.28L1576.29 402.96" stroke="rgba(26, 35, 126, 1)" stroke-width="1.5"></path><path d="M1576.29 402.96L1576.29 402.96" stroke="rgba(26, 35, 126, 1)" stroke-width="1.5"></path><path d="M1576.29 402.96L1574.65 513.28" stroke="rgba(26, 35, 126, 1)" stroke-width="1.5"></path><path d="M1574.65 513.28L1574.65 513.28" stroke="rgba(26, 35, 126, 1)" stroke-width="1.5"></path><path d="M1574.65 513.28L1551.33 642.07" stroke="rgba(26, 35, 126, 1)" stroke-width="1.5"></path><path d="M1574.65 513.28L1403.99 406.46" stroke="rgba(26, 35, 126, 1)" stroke-width="1.5"></path><path d="M1574.65 513.28L1423.98 683.52" stroke="rgba(26, 35, 126, 1)" stroke-width="1.5"></path><path d="M1551.33 642.07L1551.33 642.07" stroke="rgba(26, 35, 126, 1)" stroke-width="1.5"></path><path d="M1551.33 642.07L1576.29 402.96" stroke="rgba(26, 35, 126, 1)" stroke-width="1.5"></path><path d="M1551.33 642.07L1403.99 406.46" stroke="rgba(26, 35, 126, 1)" stroke-width="1.5"></path><path d="M1551.33 642.07L1296.91 519.57" stroke="rgba(26, 35, 126, 1)" stroke-width="1.5"></path><path d="M1551.33 642.07L1242.45 702.44" stroke="rgba(26, 35, 126, 1)" stroke-width="1.5"></path><circle r="5" cx="-94.23" cy="340.98" fill="rgba(26, 35, 126, 1)"></circle><circle r="5" cx="-67.68" cy="493.49" fill="rgba(26, 35, 126, 1)"></circle><circle r="5" cx="-39.41" cy="707.62" fill="rgba(26, 35, 126, 1)"></circle><circle r="5" cx="47.73" cy="372.22" fill="rgba(26, 35, 126, 1)"></circle><circle r="5" cx="55.5" cy="530.08" fill="rgba(26, 35, 126, 1)"></circle><circle r="5" cx="44.72" cy="704.85" fill="rgba(26, 35, 126, 1)"></circle><circle r="5" cx="231.95" cy="382.97" fill="rgba(26, 35, 126, 1)"></circle><circle r="5" cx="221.16" cy="495.91" fill="rgba(26, 35, 126, 1)"></circle><circle r="5" cx="217.85" cy="705.81" fill="rgba(26, 35, 126, 1)"></circle><circle r="5" cx="393.05" cy="341.81" fill="rgba(26, 35, 126, 1)"></circle><circle r="5" cx="342.61" cy="493.14" fill="rgba(26, 35, 126, 1)"></circle><circle r="5" cx="341.84" cy="638.27" fill="rgba(26, 35, 126, 1)"></circle><circle r="5" cx="529.5" cy="557.54" fill="rgba(26, 35, 126, 1)"></circle><circle r="5" cx="511.06" cy="665.69" fill="rgba(26, 35, 126, 1)"></circle><circle r="5" cx="645.72" cy="370.58" fill="rgba(26, 35, 126, 1)"></circle><circle r="5" cx="695.42" cy="495.38" fill="rgba(26, 35, 126, 1)"></circle><circle r="5" cx="684.55" cy="689.11" fill="rgba(26, 35, 126, 1)"></circle><circle r="5" cx="851.73" cy="244.09" fill="rgba(26, 35, 126, 1)"></circle><circle r="5" cx="827.38" cy="369.56" fill="rgba(26, 35, 126, 1)"></circle><circle r="5" cx="787.86" cy="525.71" fill="rgba(26, 35, 126, 1)"></circle><circle r="5" cx="820.35" cy="696.41" fill="rgba(26, 35, 126, 1)"></circle><circle r="5" cx="1004.6" cy="-66.74" fill="rgba(26, 35, 126, 1)"></circle><circle r="5" cx="947.77" cy="261.5" fill="rgba(26, 35, 126, 1)"></circle><circle r="5" cx="984.45" cy="348.76" fill="rgba(26, 35, 126, 1)"></circle><circle r="5" cx="943.6" cy="548.92" fill="rgba(26, 35, 126, 1)"></circle><circle r="5" cx="967.28" cy="681.6" fill="rgba(26, 35, 126, 1)"></circle><circle r="5" cx="1094.02" cy="-94.43" fill="rgba(26, 35, 126, 1)"></circle><circle r="5" cx="1100.5" cy="82.6" fill="rgba(26, 35, 126, 1)"></circle><circle r="5" cx="1112.62" cy="237.37" fill="rgba(26, 35, 126, 1)"></circle><circle r="5" cx="1118.34" cy="342.86" fill="rgba(26, 35, 126, 1)"></circle><circle r="5" cx="1126.03" cy="528.86" fill="rgba(26, 35, 126, 1)"></circle><circle r="5" cx="1149.35" cy="706.54" fill="rgba(26, 35, 126, 1)"></circle><circle r="5" cx="1256.56" cy="-103.9" fill="rgba(26, 35, 126, 1)"></circle><circle r="5" cx="1275.76" cy="77.11" fill="rgba(26, 35, 126, 1)"></circle><circle r="5" cx="1312.06" cy="262.03" fill="rgba(26, 35, 126, 1)"></circle><circle r="5" cx="1305.34" cy="359.95" fill="rgba(26, 35, 126, 1)"></circle><circle r="5" cx="1296.91" cy="519.57" fill="rgba(26, 35, 126, 1)"></circle><circle r="5" cx="1242.45" cy="702.44" fill="rgba(26, 35, 126, 1)"></circle><circle r="5" cx="1414.47" cy="-105.18" fill="rgba(26, 35, 126, 1)"></circle><circle r="5" cx="1419.96" cy="108.47" fill="rgba(26, 35, 126, 1)"></circle><circle r="5" cx="1417.08" cy="261.44" fill="rgba(26, 35, 126, 1)"></circle><circle r="5" cx="1403.99" cy="406.46" fill="rgba(26, 35, 126, 1)"></circle><circle r="5" cx="1423.98" cy="683.52" fill="rgba(26, 35, 126, 1)"></circle><circle r="5" cx="1551.9" cy="-53.84" fill="rgba(26, 35, 126, 1)"></circle><circle r="5" cx="1609.84" cy="75.76" fill="rgba(26, 35, 126, 1)"></circle><circle r="5" cx="1595.14" cy="192.28" fill="rgba(26, 35, 126, 1)"></circle><circle r="5" cx="1576.29" cy="402.96" fill="rgba(26, 35, 126, 1)"></circle><circle r="5" cx="1574.65" cy="513.28" fill="rgba(26, 35, 126, 1)"></circle><circle r="5" cx="1551.33" cy="642.07" fill="rgba(26, 35, 126, 1)"></circle><path d="M-47.13 514.71L-47.13 514.71" stroke="hsl(207.29999999999995, 44%, 63.7%)" stroke-width="1.5"></path><path d="M-47.13 514.71L-60.54 662.3" stroke="hsl(207.29999999999995, 44%, 63.7%)" stroke-width="1.5"></path><path d="M-47.13 514.71L107.08 543.22" stroke="hsl(207.29999999999995, 44%, 63.7%)" stroke-width="1.5"></path><path d="M-60.54 662.3L-60.54 662.3" stroke="hsl(207.29999999999995, 44%, 63.7%)" stroke-width="1.5"></path><path d="M-60.54 662.3L102.53 708.91" stroke="hsl(207.29999999999995, 44%, 63.7%)" stroke-width="1.5"></path><path d="M-60.54 662.3L107.08 543.22" stroke="hsl(207.29999999999995, 44%, 63.7%)" stroke-width="1.5"></path><path d="M-60.54 662.3L239.92 689.6" stroke="hsl(207.29999999999995, 44%, 63.7%)" stroke-width="1.5"></path><path d="M-60.54 662.3L261.77 561.72" stroke="hsl(207.29999999999995, 44%, 63.7%)" stroke-width="1.5"></path><path d="M-60.54 662.3L371.68 650.44" stroke="hsl(207.29999999999995, 44%, 63.7%)" stroke-width="1.5"></path><path d="M107.08 543.22L107.08 543.22" stroke="hsl(207.29999999999995, 44%, 63.7%)" stroke-width="1.5"></path><path d="M107.08 543.22L261.77 561.72" stroke="hsl(207.29999999999995, 44%, 63.7%)" stroke-width="1.5"></path><path d="M107.08 543.22L102.53 708.91" stroke="hsl(207.29999999999995, 44%, 63.7%)" stroke-width="1.5"></path><path d="M107.08 543.22L239.92 689.6" stroke="hsl(207.29999999999995, 44%, 63.7%)" stroke-width="1.5"></path><path d="M102.53 708.91L102.53 708.91" stroke="hsl(207.29999999999995, 44%, 63.7%)" stroke-width="1.5"></path><path d="M102.53 708.91L239.92 689.6" stroke="hsl(207.29999999999995, 44%, 63.7%)" stroke-width="1.5"></path><path d="M261.77 561.72L261.77 561.72" stroke="hsl(207.29999999999995, 44%, 63.7%)" stroke-width="1.5"></path><path d="M261.77 561.72L239.92 689.6" stroke="hsl(207.29999999999995, 44%, 63.7%)" stroke-width="1.5"></path><path d="M261.77 561.72L371.68 650.44" stroke="hsl(207.29999999999995, 44%, 63.7%)" stroke-width="1.5"></path><path d="M261.77 561.72L399.62 507.01" stroke="hsl(207.29999999999995, 44%, 63.7%)" stroke-width="1.5"></path><path d="M239.92 689.6L239.92 689.6" stroke="hsl(207.29999999999995, 44%, 63.7%)" stroke-width="1.5"></path><path d="M239.92 689.6L371.68 650.44" stroke="hsl(207.29999999999995, 44%, 63.7%)" stroke-width="1.5"></path><path d="M399.62 507.01L399.62 507.01" stroke="hsl(207.29999999999995, 44%, 63.7%)" stroke-width="1.5"></path><path d="M399.62 507.01L531.67 519.35" stroke="hsl(207.29999999999995, 44%, 63.7%)" stroke-width="1.5"></path><path d="M371.68 650.44L371.68 650.44" stroke="hsl(207.29999999999995, 44%, 63.7%)" stroke-width="1.5"></path><path d="M531.67 519.35L531.67 519.35" stroke="hsl(207.29999999999995, 44%, 63.7%)" stroke-width="1.5"></path><path d="M531.67 519.35L686.86 518.64" stroke="hsl(207.29999999999995, 44%, 63.7%)" stroke-width="1.5"></path><path d="M558.79 700.44L558.79 700.44" stroke="hsl(207.29999999999995, 44%, 63.7%)" stroke-width="1.5"></path><path d="M558.79 700.44L637.64 684.03" stroke="hsl(207.29999999999995, 44%, 63.7%)" stroke-width="1.5"></path><path d="M558.79 700.44L531.67 519.35" stroke="hsl(207.29999999999995, 44%, 63.7%)" stroke-width="1.5"></path><path d="M558.79 700.44L371.68 650.44" stroke="hsl(207.29999999999995, 44%, 63.7%)" stroke-width="1.5"></path><path d="M558.79 700.44L686.86 518.64" stroke="hsl(207.29999999999995, 44%, 63.7%)" stroke-width="1.5"></path><path d="M558.79 700.44L399.62 507.01" stroke="hsl(207.29999999999995, 44%, 63.7%)" stroke-width="1.5"></path><path d="M558.79 700.44L815.51 639.98" stroke="hsl(207.29999999999995, 44%, 63.7%)" stroke-width="1.5"></path><path d="M694.52 362.9L694.52 362.9" stroke="hsl(207.29999999999995, 44%, 63.7%)" stroke-width="1.5"></path><path d="M694.52 362.9L686.86 518.64" stroke="hsl(207.29999999999995, 44%, 63.7%)" stroke-width="1.5"></path><path d="M694.52 362.9L848.87 391.49" stroke="hsl(207.29999999999995, 44%, 63.7%)" stroke-width="1.5"></path><path d="M686.86 518.64L686.86 518.64" stroke="hsl(207.29999999999995, 44%, 63.7%)" stroke-width="1.5"></path><path d="M686.86 518.64L787.99 529.47" stroke="hsl(207.29999999999995, 44%, 63.7%)" stroke-width="1.5"></path><path d="M637.64 684.03L637.64 684.03" stroke="hsl(207.29999999999995, 44%, 63.7%)" stroke-width="1.5"></path><path d="M637.64 684.03L686.86 518.64" stroke="hsl(207.29999999999995, 44%, 63.7%)" stroke-width="1.5"></path><path d="M637.64 684.03L815.51 639.98" stroke="hsl(207.29999999999995, 44%, 63.7%)" stroke-width="1.5"></path><path d="M848.87 391.49L848.87 391.49" stroke="hsl(207.29999999999995, 44%, 63.7%)" stroke-width="1.5"></path><path d="M848.87 391.49L787.99 529.47" stroke="hsl(207.29999999999995, 44%, 63.7%)" stroke-width="1.5"></path><path d="M787.99 529.47L787.99 529.47" stroke="hsl(207.29999999999995, 44%, 63.7%)" stroke-width="1.5"></path><path d="M787.99 529.47L815.51 639.98" stroke="hsl(207.29999999999995, 44%, 63.7%)" stroke-width="1.5"></path><path d="M787.99 529.47L965.87 510.28" stroke="hsl(207.29999999999995, 44%, 63.7%)" stroke-width="1.5"></path><path d="M815.51 639.98L815.51 639.98" stroke="hsl(207.29999999999995, 44%, 63.7%)" stroke-width="1.5"></path><path d="M815.51 639.98L980.23 692.22" stroke="hsl(207.29999999999995, 44%, 63.7%)" stroke-width="1.5"></path><path d="M815.51 639.98L686.86 518.64" stroke="hsl(207.29999999999995, 44%, 63.7%)" stroke-width="1.5"></path><path d="M815.51 639.98L965.87 510.28" stroke="hsl(207.29999999999995, 44%, 63.7%)" stroke-width="1.5"></path><path d="M965.87 510.28L965.87 510.28" stroke="hsl(207.29999999999995, 44%, 63.7%)" stroke-width="1.5"></path><path d="M965.87 510.28L1100.57 500.51" stroke="hsl(207.29999999999995, 44%, 63.7%)" stroke-width="1.5"></path><path d="M965.87 510.28L848.87 391.49" stroke="hsl(207.29999999999995, 44%, 63.7%)" stroke-width="1.5"></path><path d="M965.87 510.28L980.23 692.22" stroke="hsl(207.29999999999995, 44%, 63.7%)" stroke-width="1.5"></path><path d="M965.87 510.28L1115.18 382.36" stroke="hsl(207.29999999999995, 44%, 63.7%)" stroke-width="1.5"></path><path d="M980.23 692.22L980.23 692.22" stroke="hsl(207.29999999999995, 44%, 63.7%)" stroke-width="1.5"></path><path d="M980.23 692.22L1161.33 643.86" stroke="hsl(207.29999999999995, 44%, 63.7%)" stroke-width="1.5"></path><path d="M980.23 692.22L1100.57 500.51" stroke="hsl(207.29999999999995, 44%, 63.7%)" stroke-width="1.5"></path><path d="M980.23 692.22L787.99 529.47" stroke="hsl(207.29999999999995, 44%, 63.7%)" stroke-width="1.5"></path><path d="M980.23 692.22L1275.79 696.28" stroke="hsl(207.29999999999995, 44%, 63.7%)" stroke-width="1.5"></path><path d="M1101.42 234.76L1101.42 234.76" stroke="hsl(207.29999999999995, 44%, 63.7%)" stroke-width="1.5"></path><path d="M1101.42 234.76L1115.18 382.36" stroke="hsl(207.29999999999995, 44%, 63.7%)" stroke-width="1.5"></path><path d="M1101.42 234.76L1268.91 229.19" stroke="hsl(207.29999999999995, 44%, 63.7%)" stroke-width="1.5"></path><path d="M1115.18 382.36L1115.18 382.36" stroke="hsl(207.29999999999995, 44%, 63.7%)" stroke-width="1.5"></path><path d="M1115.18 382.36L1100.57 500.51" stroke="hsl(207.29999999999995, 44%, 63.7%)" stroke-width="1.5"></path><path d="M1115.18 382.36L1253.61 352.53" stroke="hsl(207.29999999999995, 44%, 63.7%)" stroke-width="1.5"></path><path d="M1115.18 382.36L1268.91 229.19" stroke="hsl(207.29999999999995, 44%, 63.7%)" stroke-width="1.5"></path><path d="M1115.18 382.36L1278.82 533.12" stroke="hsl(207.29999999999995, 44%, 63.7%)" stroke-width="1.5"></path><path d="M1100.57 500.51L1100.57 500.51" stroke="hsl(207.29999999999995, 44%, 63.7%)" stroke-width="1.5"></path><path d="M1100.57 500.51L1161.33 643.86" stroke="hsl(207.29999999999995, 44%, 63.7%)" stroke-width="1.5"></path><path d="M1100.57 500.51L1278.82 533.12" stroke="hsl(207.29999999999995, 44%, 63.7%)" stroke-width="1.5"></path><path d="M1100.57 500.51L1253.61 352.53" stroke="hsl(207.29999999999995, 44%, 63.7%)" stroke-width="1.5"></path><path d="M1161.33 643.86L1161.33 643.86" stroke="hsl(207.29999999999995, 44%, 63.7%)" stroke-width="1.5"></path><path d="M1161.33 643.86L1275.79 696.28" stroke="hsl(207.29999999999995, 44%, 63.7%)" stroke-width="1.5"></path><path d="M1161.33 643.86L1278.82 533.12" stroke="hsl(207.29999999999995, 44%, 63.7%)" stroke-width="1.5"></path><path d="M1265.8 -97.17L1265.8 -97.17" stroke="hsl(207.29999999999995, 44%, 63.7%)" stroke-width="1.5"></path><path d="M1265.8 -97.17L1392.14 -50.09" stroke="hsl(207.29999999999995, 44%, 63.7%)" stroke-width="1.5"></path><path d="M1265.8 -97.17L1244.17 64.76" stroke="hsl(207.29999999999995, 44%, 63.7%)" stroke-width="1.5"></path><path d="M1265.8 -97.17L1409.19 40.91" stroke="hsl(207.29999999999995, 44%, 63.7%)" stroke-width="1.5"></path><path d="M1265.8 -97.17L1566.26 -76.47" stroke="hsl(207.29999999999995, 44%, 63.7%)" stroke-width="1.5"></path><path d="M1265.8 -97.17L1268.91 229.19" stroke="hsl(207.29999999999995, 44%, 63.7%)" stroke-width="1.5"></path><path d="M1244.17 64.76L1244.17 64.76" stroke="hsl(207.29999999999995, 44%, 63.7%)" stroke-width="1.5"></path><path d="M1244.17 64.76L1268.91 229.19" stroke="hsl(207.29999999999995, 44%, 63.7%)" stroke-width="1.5"></path><path d="M1244.17 64.76L1409.19 40.91" stroke="hsl(207.29999999999995, 44%, 63.7%)" stroke-width="1.5"></path><path d="M1268.91 229.19L1268.91 229.19" stroke="hsl(207.29999999999995, 44%, 63.7%)" stroke-width="1.5"></path><path d="M1268.91 229.19L1391.17 248.68" stroke="hsl(207.29999999999995, 44%, 63.7%)" stroke-width="1.5"></path><path d="M1253.61 352.53L1253.61 352.53" stroke="hsl(207.29999999999995, 44%, 63.7%)" stroke-width="1.5"></path><path d="M1253.61 352.53L1268.91 229.19" stroke="hsl(207.29999999999995, 44%, 63.7%)" stroke-width="1.5"></path><path d="M1253.61 352.53L1391.17 248.68" stroke="hsl(207.29999999999995, 44%, 63.7%)" stroke-width="1.5"></path><path d="M1253.61 352.53L1431.07 346.67" stroke="hsl(207.29999999999995, 44%, 63.7%)" stroke-width="1.5"></path><path d="M1278.82 533.12L1278.82 533.12" stroke="hsl(207.29999999999995, 44%, 63.7%)" stroke-width="1.5"></path><path d="M1278.82 533.12L1424.88 527.69" stroke="hsl(207.29999999999995, 44%, 63.7%)" stroke-width="1.5"></path><path d="M1278.82 533.12L1275.79 696.28" stroke="hsl(207.29999999999995, 44%, 63.7%)" stroke-width="1.5"></path><path d="M1278.82 533.12L1409.65 656.83" stroke="hsl(207.29999999999995, 44%, 63.7%)" stroke-width="1.5"></path><path d="M1275.79 696.28L1275.79 696.28" stroke="hsl(207.29999999999995, 44%, 63.7%)" stroke-width="1.5"></path><path d="M1275.79 696.28L1409.65 656.83" stroke="hsl(207.29999999999995, 44%, 63.7%)" stroke-width="1.5"></path><path d="M1275.79 696.28L1424.88 527.69" stroke="hsl(207.29999999999995, 44%, 63.7%)" stroke-width="1.5"></path><path d="M1275.79 696.28L1100.57 500.51" stroke="hsl(207.29999999999995, 44%, 63.7%)" stroke-width="1.5"></path><path d="M1392.14 -50.09L1392.14 -50.09" stroke="hsl(207.29999999999995, 44%, 63.7%)" stroke-width="1.5"></path><path d="M1392.14 -50.09L1409.19 40.91" stroke="hsl(207.29999999999995, 44%, 63.7%)" stroke-width="1.5"></path><path d="M1392.14 -50.09L1566.26 -76.47" stroke="hsl(207.29999999999995, 44%, 63.7%)" stroke-width="1.5"></path><path d="M1392.14 -50.09L1244.17 64.76" stroke="hsl(207.29999999999995, 44%, 63.7%)" stroke-width="1.5"></path><path d="M1392.14 -50.09L1574.38 94.51" stroke="hsl(207.29999999999995, 44%, 63.7%)" stroke-width="1.5"></path><path d="M1409.19 40.91L1409.19 40.91" stroke="hsl(207.29999999999995, 44%, 63.7%)" stroke-width="1.5"></path><path d="M1391.17 248.68L1391.17 248.68" stroke="hsl(207.29999999999995, 44%, 63.7%)" stroke-width="1.5"></path><path d="M1391.17 248.68L1431.07 346.67" stroke="hsl(207.29999999999995, 44%, 63.7%)" stroke-width="1.5"></path><path d="M1391.17 248.68L1572.46 344.53" stroke="hsl(207.29999999999995, 44%, 63.7%)" stroke-width="1.5"></path><path d="M1431.07 346.67L1431.07 346.67" stroke="hsl(207.29999999999995, 44%, 63.7%)" stroke-width="1.5"></path><path d="M1431.07 346.67L1572.46 344.53" stroke="hsl(207.29999999999995, 44%, 63.7%)" stroke-width="1.5"></path><path d="M1424.88 527.69L1424.88 527.69" stroke="hsl(207.29999999999995, 44%, 63.7%)" stroke-width="1.5"></path><path d="M1424.88 527.69L1409.65 656.83" stroke="hsl(207.29999999999995, 44%, 63.7%)" stroke-width="1.5"></path><path d="M1424.88 527.69L1431.07 346.67" stroke="hsl(207.29999999999995, 44%, 63.7%)" stroke-width="1.5"></path><path d="M1424.88 527.69L1608.02 544.98" stroke="hsl(207.29999999999995, 44%, 63.7%)" stroke-width="1.5"></path><path d="M1409.65 656.83L1409.65 656.83" stroke="hsl(207.29999999999995, 44%, 63.7%)" stroke-width="1.5"></path><path d="M1409.65 656.83L1610.99 668.59" stroke="hsl(207.29999999999995, 44%, 63.7%)" stroke-width="1.5"></path><path d="M1409.65 656.83L1608.02 544.98" stroke="hsl(207.29999999999995, 44%, 63.7%)" stroke-width="1.5"></path><path d="M1566.26 -76.47L1566.26 -76.47" stroke="hsl(207.29999999999995, 44%, 63.7%)" stroke-width="1.5"></path><path d="M1566.26 -76.47L1574.38 94.51" stroke="hsl(207.29999999999995, 44%, 63.7%)" stroke-width="1.5"></path><path d="M1574.38 94.51L1574.38 94.51" stroke="hsl(207.29999999999995, 44%, 63.7%)" stroke-width="1.5"></path><path d="M1574.38 94.51L1593.14 198.33" stroke="hsl(207.29999999999995, 44%, 63.7%)" stroke-width="1.5"></path><path d="M1574.38 94.51L1409.19 40.91" stroke="hsl(207.29999999999995, 44%, 63.7%)" stroke-width="1.5"></path><path d="M1574.38 94.51L1391.17 248.68" stroke="hsl(207.29999999999995, 44%, 63.7%)" stroke-width="1.5"></path><path d="M1593.14 198.33L1593.14 198.33" stroke="hsl(207.29999999999995, 44%, 63.7%)" stroke-width="1.5"></path><path d="M1593.14 198.33L1572.46 344.53" stroke="hsl(207.29999999999995, 44%, 63.7%)" stroke-width="1.5"></path><path d="M1593.14 198.33L1391.17 248.68" stroke="hsl(207.29999999999995, 44%, 63.7%)" stroke-width="1.5"></path><path d="M1593.14 198.33L1431.07 346.67" stroke="hsl(207.29999999999995, 44%, 63.7%)" stroke-width="1.5"></path><path d="M1572.46 344.53L1572.46 344.53" stroke="hsl(207.29999999999995, 44%, 63.7%)" stroke-width="1.5"></path><path d="M1572.46 344.53L1608.02 544.98" stroke="hsl(207.29999999999995, 44%, 63.7%)" stroke-width="1.5"></path><path d="M1572.46 344.53L1424.88 527.69" stroke="hsl(207.29999999999995, 44%, 63.7%)" stroke-width="1.5"></path><path d="M1572.46 344.53L1574.38 94.51" stroke="hsl(207.29999999999995, 44%, 63.7%)" stroke-width="1.5"></path><path d="M1608.02 544.98L1608.02 544.98" stroke="hsl(207.29999999999995, 44%, 63.7%)" stroke-width="1.5"></path><path d="M1608.02 544.98L1610.99 668.59" stroke="hsl(207.29999999999995, 44%, 63.7%)" stroke-width="1.5"></path><path d="M1610.99 668.59L1610.99 668.59" stroke="hsl(207.29999999999995, 44%, 63.7%)" stroke-width="1.5"></path><circle r="25" cx="-47.13" cy="514.71" fill="url(#SvgjsRadialGradient1011)"></circle><circle r="5" cx="-60.54" cy="662.3" fill="#a3c1da"></circle><circle r="5" cx="107.08" cy="543.22" fill="#a3c1da"></circle><circle r="5" cx="102.53" cy="708.91" fill="#a3c1da"></circle><circle r="5" cx="261.77" cy="561.72" fill="#a3c1da"></circle><circle r="5" cx="239.92" cy="689.6" fill="#a3c1da"></circle><circle r="5" cx="399.62" cy="507.01" fill="#a3c1da"></circle><circle r="5" cx="371.68" cy="650.44" fill="#a3c1da"></circle><circle r="5" cx="531.67" cy="519.35" fill="#a3c1da"></circle><circle r="5" cx="558.79" cy="700.44" fill="#a3c1da"></circle><circle r="5" cx="694.52" cy="362.9" fill="#a3c1da"></circle><circle r="5" cx="686.86" cy="518.64" fill="#a3c1da"></circle><circle r="5" cx="637.64" cy="684.03" fill="#a3c1da"></circle><circle r="5" cx="848.87" cy="391.49" fill="#a3c1da"></circle><circle r="5" cx="787.99" cy="529.47" fill="#a3c1da"></circle><circle r="5" cx="815.51" cy="639.98" fill="#a3c1da"></circle><circle r="5" cx="965.87" cy="510.28" fill="#a3c1da"></circle><circle r="5" cx="980.23" cy="692.22" fill="#a3c1da"></circle><circle r="5" cx="1101.42" cy="234.76" fill="#a3c1da"></circle><circle r="5" cx="1115.18" cy="382.36" fill="#a3c1da"></circle><circle r="5" cx="1100.57" cy="500.51" fill="#a3c1da"></circle><circle r="5" cx="1161.33" cy="643.86" fill="#a3c1da"></circle><circle r="5" cx="1265.8" cy="-97.17" fill="#a3c1da"></circle><circle r="5" cx="1244.17" cy="64.76" fill="#a3c1da"></circle><circle r="5" cx="1268.91" cy="229.19" fill="#a3c1da"></circle><circle r="5" cx="1253.61" cy="352.53" fill="#a3c1da"></circle><circle r="5" cx="1278.82" cy="533.12" fill="#a3c1da"></circle><circle r="5" cx="1275.79" cy="696.28" fill="#a3c1da"></circle><circle r="5" cx="1392.14" cy="-50.09" fill="#a3c1da"></circle><circle r="5" cx="1409.19" cy="40.91" fill="#a3c1da"></circle><circle r="5" cx="1391.17" cy="248.68" fill="#a3c1da"></circle><circle r="5" cx="1431.07" cy="346.67" fill="#a3c1da"></circle><circle r="5" cx="1424.88" cy="527.69" fill="#a3c1da"></circle><circle r="5" cx="1409.65" cy="656.83" fill="#a3c1da"></circle><circle r="5" cx="1566.26" cy="-76.47" fill="#a3c1da"></circle><circle r="5" cx="1574.38" cy="94.51" fill="#a3c1da"></circle><circle r="5" cx="1593.14" cy="198.33" fill="#a3c1da"></circle><circle r="5" cx="1572.46" cy="344.53" fill="#a3c1da"></circle><circle r="5" cx="1608.02" cy="544.98" fill="#a3c1da"></circle><circle r="5" cx="1610.99" cy="668.59" fill="#a3c1da"></circle></g><defs><mask id="SvgjsMask1010"><rect width="1440" height="560" fill="#ffffff"></rect></mask><radialGradient id="SvgjsRadialGradient1011"><stop stop-color="#ffffff" offset="0.1"></stop><stop stop-color="rgba(70, 130, 180, 1)" offset="0.2"></stop><stop stop-color="rgba(70, 130, 180, 0)" offset="1"></stop></radialGradient></defs></svg>