<svg xmlns="http://www.w3.org/2000/svg" version="1.1" xmlns:xlink="http://www.w3.org/1999/xlink" xmlns:svgjs="http://svgjs.com/svgjs" width="1440" height="560" preserveAspectRatio="none" viewBox="0 0 1440 560"><g mask="url(&quot;#SvgjsMask1004&quot;)" fill="none"><rect width="1440" height="560" x="0" y="0" fill="rgba(0, 99, 178, 1)"></rect><circle r="7.11" cx="805.47" cy="218.63000000000002" filter="url(#SvgjsFilter1005)" fill="rgba(102, 204, 255, 1)"></circle><circle r="6.515" cx="184.345" cy="508.03499999999997" filter="url(#SvgjsFilter1005)" fill="rgba(102, 204, 255, 1)"></circle><circle r="8.84" cx="645.47" cy="226.81" filter="url(#SvgjsFilter1005)" fill="rgba(102, 204, 255, 1)"></circle><circle r="8.525" cx="32.935" cy="438.59499999999997" filter="url(#SvgjsFilter1005)" fill="rgba(102, 204, 255, 1)"></circle><circle r="7.28" cx="460.52" cy="8.67" filter="url(#SvgjsFilter1005)" fill="rgba(102, 204, 255, 1)"></circle><circle r="5.84" cx="414.11999999999995" cy="270.96" filter="url(#SvgjsFilter1005)" fill="rgba(102, 204, 255, 1)"></circle><circle r="5.35" cx="648.0600000000001" cy="174.01999999999998" filter="url(#SvgjsFilter1005)" fill="rgba(102, 204, 255, 1)"></circle><circle r="6.57" cx="394.75" cy="30.67" filter="url(#SvgjsFilter1005)" fill="rgba(102, 204, 255, 1)"></circle><circle r="8.075" cx="962.9050000000001" cy="103.175" filter="url(#SvgjsFilter1005)" fill="rgba(102, 204, 255, 1)"></circle><circle r="5.77" cx="738.04" cy="251.20000000000002" filter="url(#SvgjsFilter1005)" fill="rgba(102, 204, 255, 1)"></circle><circle r="8.895" cx="490.245" cy="336.585" filter="url(#SvgjsFilter1005)" fill="rgba(102, 204, 255, 1)"></circle><circle r="7.26" cx="1279.7" cy="178.81" filter="url(#SvgjsFilter1005)" fill="rgba(102, 204, 255, 1)"></circle><circle r="7.345" cx="100.955" cy="332.235" filter="url(#SvgjsFilter1005)" fill="rgba(102, 204, 255, 1)"></circle><circle r="4.815" cx="1345.875" cy="406.725" filter="url(#SvgjsFilter1005)" fill="rgba(102, 204, 255, 1)"></circle><circle r="8.29" cx="858.98" cy="486.51000000000005" filter="url(#SvgjsFilter1005)" fill="rgba(102, 204, 255, 1)"></circle><circle r="6.865" cx="1193.935" cy="106.005" filter="url(#SvgjsFilter1005)" fill="rgba(102, 204, 255, 1)"></circle><circle r="7.875" cx="200.425" cy="328.295" filter="url(#SvgjsFilter1005)" fill="rgba(102, 204, 255, 1)"></circle><circle r="5.155" cx="931.925" cy="125.125" filter="url(#SvgjsFilter1005)" fill="rgba(102, 204, 255, 1)"></circle><circle r="6.085" cx="178.85500000000002" cy="539.585" filter="url(#SvgjsFilter1005)" fill="rgba(102, 204, 255, 1)"></circle><circle r="5.86" cx="1374.04" cy="463.14" filter="url(#SvgjsFilter1005)" fill="rgba(102, 204, 255, 1)"></circle><path d="M851.9 435.9L842.2 383.7 869.3 344.9 889.4 387.8 871 437.6C871 437.6 871 438.2 871 438.2 870.9 439.5 872 440.9 873.3 441.6 875.1 442.4 877.1 441.3 877.3 439.4L893.2 395.8 903 416.6 896.2 435.9C896.2 435.9 896.2 436.5 896.2 436.5 896.1 437.8 897.2 439.2 898.5 439.9 900.3 440.7 902.3 439.6 902.5 437.7L907.5 424.6 914.5 440C915 441.4 917.5 442.2 918.9 441.7 920.8 441.2 921 438.7 920.5 437.3L913.5 422 926.5 426.9C928.4 427.7 930.4 426.6 930.6 424.7 931.4 422.8 930.3 420.8 928.4 420.7L909 413.9 899.9 393.2 943.5 409.1C945.3 409.9 947.4 408.8 947.5 406.9 948.3 405 947.2 403 945.3 402.8L895.5 384.4 875.4 341.6 923.2 345.7 957.6 386.6C958.8 387.9 960.7 388.1 962.1 386.9 963.5 385.8 963.6 383.9 962.5 382.5L932.2 346.5 955.1 348.4 967.9 363.7C969.1 365.1 971 365.2 972.4 364.1 973.8 362.9 974 361 972.8 359.6L964 349.2 981.9 350.7C983.8 351.5 985.2 349.7 985.4 347.8 985.5 345.9 984.4 344.5 982.4 344.4L965.9 342.9 976.2 334.2C977.6 333 977.8 331.1 976.6 329.7S973.6 328.2 972.2 329.3L956.9 342.2 934 340.2 970 309.9C971.4 308.7 971.5 306.8 970.4 305.4 969.2 304 967.3 303.9 965.9 305L925.1 339.4 877.9 335.4 905 296.6 955.8 287.5C957.8 287 958.6 285.1 958.8 283.2 958.3 281.3 956.4 280.5 954.5 280.3L908.9 288.6 922 269.8 942.2 266.4C944.2 265.9 945 264.1 945.2 262.2 944.7 260.2 942.8 259.4 941.6 259.3L927.8 262 937.4 248C938.1 246.8 938.4 244.2 936.5 243.4 934.6 242.6 932.7 242.5 931.9 244.3L922.4 258.3 919.7 244.6C919.2 242.6 917.4 241.8 916.1 241.7 914.8 242.2 913.4 243.4 913.3 244.6 913.3 244.6 913.2 245.3 913.2 245.3L916.6 265.5 903.4 284.3 895.2 238.6C894.7 236.6 892.8 235.8 891.5 235.7 890.2 236.2 888.8 237.4 888.7 238.7 888.7 238.7 888.7 239.3 888.7 239.3L898.3 291.5 871.2 330.3 851.1 287.5 869.5 237.7C870.3 235.8 869.2 233.8 867.3 233.6 865.5 232.8 863.4 233.9 863.3 235.9L847.3 279.5 837.5 258.7 844.3 239.4C845.1 237.5 844 235.5 842.1 235.3 840.3 234.5 838.2 235.6 838.1 237.6L833.1 250.6 826.1 235.2C825.5 233.9 823 233.1 821.7 233.6 820.4 234.1 819.6 235.3 819.5 236.6 819.5 237.2 819.4 237.9 820 238.6L827 254 814 249C812.1 248.2 810.1 249.3 809.9 251.2 809.9 251.2 809.9 251.8 809.9 251.8 809.8 253.1 810.9 254.5 812.2 255.2L831.5 262 841.3 282.8 797.7 266.9C795.8 266.1 793.8 267.2 793.6 269.1 793.6 269.1 793.6 269.7 793.6 269.7 793.5 271 794.6 272.4 795.8 273.1L845.7 291.5 865.8 334.4 818.6 330.3 784.2 289.5C783 288.1 781.1 287.9 779.7 289.1 778.3 290.2 778.2 292.2 779.3 293.5L809 329.5 786 327.5 773.2 312.3C772.1 310.9 770.1 310.7 768.8 311.9S767.2 315 768.4 316.4L777.1 326.8 760.5 325.3C758.6 325.2 757.2 326.3 757.1 328.2 756.9 330.2 758.1 331.5 760 331.7L776.6 333.1 766.2 341.9C765.5 342.5 764.8 343 764.7 344.3S765.2 346.3 765.7 347C766.9 348.4 768.8 348.5 770.2 347.4L785.4 334.5 808.4 336.5 772.4 366.8C771.7 367.4 771 368 770.9 369.3 770.8 369.9 771.4 371.2 772 371.9 773.1 373.3 775 373.5 776.4 372.3L817.3 337.9 864.5 342 837.4 380.7 785.1 390.4C783.8 390.9 782.4 392.1 782.3 393.4 782.3 393.4 782.3 394 782.3 394 782.7 396 784.6 396.8 785.9 396.9L831.6 388.6 818.4 407.4 798.2 410.8C796.8 411.3 795.5 412.5 795.4 413.8 795.4 413.8 795.3 414.4 795.3 414.4 795.8 416.4 797.6 417.2 798.9 417.3L812.6 414.6 803.1 428.5C803 429.2 802.3 429.8 802.3 430.4 802.2 431.7 802.7 433 803.9 433.8 805.8 434.6 807.7 434.7 808.5 432.9L818 418.9 820.7 432.6C821.2 434.6 823 435.4 824.3 435.5 826.3 435 827.1 433.2 827.2 431.9L823.8 411.7 837 392.9 845.3 438.6C845.7 440.6 847.6 441.4 848.9 441.5 850.9 439.7 852.4 437.9 851.9 435.9Z" fill="rgba(102, 204, 255, 1)"></path><path d="M301.5 564L264.9 548.7 260.5 538.7 275.3 519.2 286.5 520.5 310.6 552.2C311 552.5 311 552.5 311.3 552.8 312.1 553.4 313.2 553.6 314.4 552.7 315.3 551.6 315.5 550.5 314.6 549.3L293.5 521.6 310.5 523.8 320 535.9C320 535.9 320.4 536.1 320.4 536.1 321.2 536.7 322.2 536.9 323.5 536.1 324.4 535.6 324.6 533.9 323.7 532.6L317.8 524.5 330.4 526.2C331.4 526.4 332.7 525.6 333.2 524.2S332.2 521.6 330.7 521.1L318.5 519.6 326.3 513.4C327.5 512.6 327.6 510.9 326.8 509.6 326 509 324.6 508.5 323.3 509.4L311.2 518.9 293.8 516.4 321.4 495.3C322.7 494.4 322.8 492.7 322.3 491.7 321.2 490.8 319.7 490.3 318.5 491.2L287.2 515.6 275.7 514.1 266.5 492 273.5 482.8 312.9 477.2C314.2 477.1 315.1 475.9 314.9 474.6S313.6 472.3 312.2 472.5L277.6 477.5 288.4 463.4 303.2 461.4C304.5 461.2 305.4 460.1 305.5 458.4S304.2 456.1 302.9 456.3L292.5 458 300.3 447.7C301.2 446.6 300.6 445 299.5 444.1 298.4 443.2 297 443.4 296.1 444.5L288.3 454.8 286.9 444.8C287 443 285.9 442.2 284.3 442.7 282.9 442.9 282 444 282.2 445.4L284.2 460.2 273.4 474.3 269.1 439.6C268.9 438.3 267.4 437.1 266.1 437.3S263.8 438.6 264 439.9L269.3 479.6 262.4 488.8 238.3 485.5 234.1 475.1 249.4 438.5C249.9 437 249.1 435.8 247.9 434.9 246.5 434.4 245.2 435.3 244.4 436.4L231.2 468.7 224.6 452.8 230.6 438.6C231.1 437.2 230.3 435.9 229.1 435 228.1 434.8 226.4 435.4 225.9 436.8L222 445.9 217 434.3C216.6 433.3 215.1 432.8 213.8 433 212.5 433.8 212 435.3 212.5 436.2L217.5 447.9 207.7 444.1C206.7 443.9 205 444.4 204.8 445.5 204 446.6 204.4 447.6 205.6 448.5 205.6 448.5 206 448.8 206 448.8L220.1 454.7 226.7 470.6 194.5 457.5C193 457 191.7 457.2 191.2 458.6 190.7 460.1 191.2 461 191.9 461.6 192.3 461.9 192.3 461.9 192.3 461.9L229.6 477.1 233.8 487.5 218.9 507 208.1 505.3 183.3 473.7C182.8 472.8 181.1 472.6 180.1 473.1 178.9 474 178.7 475.7 179.6 477L200.8 504.6 183.7 502.4 174.2 490.4C173.4 489.1 171.9 488.6 171 489.7 169.8 490.6 169.7 492.3 170.2 493.3L176.7 501.3 164.1 499.6C162.8 499.8 161.5 500.6 161.1 502 161.1 502.7 161.6 503.7 162.4 504.3 162.8 504.6 162.8 504.6 163.4 504.5L176 506.2 168 512.8C166.7 513.6 166.9 515 167.4 515.9 167.7 516.2 167.7 516.2 168.1 516.5 168.9 517.1 169.9 517.3 170.9 516.8L183 507.3 200.1 509.5 172.4 530.7C171.5 531.8 171.1 533.2 172.2 534.1 172.3 534.8 172.3 534.8 172.7 535.1 173.4 535.7 174.8 535.5 175.7 535L207.4 510.2 218.2 511.8 227.7 534.2 221 543 181.3 548.3C180 548.5 178.8 550 179 551.4S180.7 553.9 182 553.7L216.6 548.7 206.1 562.4 191 564.8C189.7 565 188.8 566.1 189 567.5 189.2 568.8 190.3 569.7 191.7 569.5L201.8 568.2 193.9 578.5C193.3 579.2 193.2 580.9 194.4 581.8 195.5 582.7 197.5 582.4 198.1 581.7L206 571.4 207.3 581.5C207.4 582.1 207.5 582.8 207.9 583.1 208.6 583.7 209.3 583.6 210 583.5 211.3 583.3 212.2 582.2 212 580.8L210.3 565.6 220.8 551.9 225.1 586.6C225.2 587.3 225.6 587.6 226.4 588.1 226.7 588.4 227.1 588.7 227.8 588.6 229.1 588.5 230.3 586.9 230.1 585.6L225.2 546.2 231.9 537.4 255.6 540.4 260.4 550.7 244.8 587.7C244.6 588.8 244.8 590.1 245.5 590.7 245.9 591 245.9 591 246.2 590.6 247.4 591.5 249 590.9 249.5 589.5L262.6 557.3 269.6 573.4 263.6 587.6C263.4 588.7 263.9 589.6 264.7 590.2 264.7 590.2 265 590.5 265 590.5 266.2 591.4 267.8 590.8 268.3 589.4L272.1 579.6 277.1 591.3C277.2 591.9 277.6 592.2 278 592.5 278.7 593.1 279.8 593.3 280.1 592.9 281.7 592.4 282.2 590.9 282 589.6L277 577.9 286.1 581.8C287.6 582.3 289.2 581.8 289.7 580.3 289.9 579.3 289.3 577.6 288.3 577.4L274.1 571.5 267.5 555.6 299.8 568.7C301.2 569.2 302.5 568.3 303.3 567.2 303.5 566.1 303 564.5 301.5 564ZM269.4 518.3L258 533.2 256.3 535.5 253.5 535.2 235.4 532.8 232.2 532.2 231.2 529.6 224.1 512.8 223.1 510.2 224.8 507.9 236.2 493 238 490.7 240.7 491 258.9 493.4 261.6 493.7 263.1 496.6 270.1 513.4 271.1 516 269.4 518.3Z" fill="rgba(102, 204, 255, 1)"></path><path d="M426 232.6L417.4 271.3 408.4 277.5 386.6 266.3 385.8 255.1 412.8 225.8C413 225.3 413 225.3 413.2 224.9 413.6 224.1 413.7 223 412.6 221.9 411.3 221.2 410.2 221.2 409.2 222.3L385.7 248 384.8 230.8 395 219.4C395 219.4 395.2 218.9 395.2 218.9 395.7 218.1 395.7 217 394.6 215.9 394 215 392.3 215.2 391.2 216.3L384.2 223.5 383.7 210.9C383.7 209.8 382.7 208.7 381.2 208.5S378.8 210 378.6 211.5L379.3 223.7 371.9 217.2C370.8 216.1 369.1 216.3 368 217.4 367.6 218.2 367.3 219.7 368.4 220.8L379.9 231 380.5 248.6 354.8 225.2C353.8 224.1 352 224.3 351.2 224.9 350.5 226.2 350.3 227.7 351.3 228.8L380.9 255.3 381.4 266.9 361.3 279.8 351.1 274.5 338.6 236.8C338.2 235.5 336.9 234.8 335.6 235.3S333.7 237 334.1 238.2L345.1 271.4 329.3 263.3 324.7 249.1C324.3 247.8 323 247.1 321.3 247.3S319.4 249 319.8 250.3L323.3 260.2 311.8 254.3C310.5 253.7 309 254.5 308.3 255.8 307.7 257.1 308.1 258.4 309.4 259L320.9 264.9 311.2 268.1C309.5 268.3 308.8 269.5 309.7 271 310.1 272.3 311.4 273 312.7 272.6L326.9 268 342.7 276.1 309.3 286.5C308 286.9 307.1 288.6 307.5 289.9S309.2 291.9 310.5 291.5L348.7 279.2 358.9 284.4 359.9 308.7 350.4 314.6 311.7 306.1C310.2 305.8 309.1 306.9 308.4 308.2 308.2 309.7 309.3 310.8 310.5 311.4L344.6 318.6 330.1 327.9 315.1 324.6C313.6 324.3 312.5 325.4 311.9 326.7 311.9 327.7 312.7 329.3 314.2 329.5L323.9 331.7 313.3 338.7C312.4 339.3 312.2 340.8 312.6 342.1 313.6 343.2 315.1 343.5 316 342.8L326.6 335.8 324.6 346.1C324.5 347.2 325.4 348.7 326.5 348.7 327.7 349.4 328.6 348.7 329.3 347.5 329.3 347.5 329.5 347 329.5 347L332.9 332 347.3 322.8 340.1 356.8C339.9 358.3 340.3 359.6 341.8 359.8 343.3 360.1 344.2 359.4 344.6 358.6 344.8 358.1 344.8 358.1 344.8 358.1L353.2 318.7 362.7 312.8 384.5 324 384.8 335 358.1 364.9C357.2 365.6 357.4 367.3 358 368.2 359.1 369.2 360.8 369.1 361.9 368L385.4 342.3 386.2 359.4 376 370.9C374.9 372 374.7 373.5 376 374.1 377.1 375.2 378.8 375 379.6 374.4L386.4 366.5 386.9 379.2C387.3 380.5 388.4 381.6 389.9 381.8 390.5 381.6 391.4 381 391.8 380.1 392 379.7 392 379.7 391.8 379L391.3 366.4 399.2 373.1C400.3 374.2 401.5 373.8 402.4 373.1 402.6 372.7 402.6 372.7 402.9 372.3 403.3 371.4 403.3 370.4 402.7 369.5L391.2 359.3 390.3 342.1 416 365.6C417.3 366.2 418.8 366.4 419.5 365.2 420.1 365 420.1 365 420.3 364.5 420.8 363.7 420.3 362.4 419.7 361.5L389.7 334.8 389.4 323.8 409.7 310.5 419.6 315.6 431.8 353.7C432.2 355 433.9 355.9 435.2 355.5S437.4 353.3 437 352L426 318.9 441.3 326.8 446.3 341.2C446.7 342.5 448 343.1 449.3 342.7 450.6 342.3 451.3 341 450.9 339.7L447.7 330 459.3 336C460.1 336.4 461.8 336.2 462.5 334.9 463.2 333.6 462.5 331.7 461.7 331.3L450.1 325.3 459.8 322.2C460.5 322 461.1 321.8 461.4 321.4 461.8 320.5 461.6 319.9 461.4 319.2 461 317.9 459.7 317.3 458.4 317.7L443.7 322.1 428.4 314.2 461.8 303.8C462.4 303.6 462.6 303.1 463.1 302.3 463.3 301.9 463.5 301.4 463.3 300.8 462.9 299.5 461.2 298.6 459.9 299L422 310.9 412.1 305.8 410.9 282 420.2 275.4 459.4 284.2C460.5 284.2 461.7 283.8 462.2 283 462.4 282.5 462.4 282.5 462 282.3 462.6 281 461.8 279.5 460.3 279.3L426.2 272.1 440.9 262.3 455.9 265.7C457 265.7 457.9 265.1 458.3 264.2 458.3 264.2 458.5 263.8 458.5 263.8 459.2 262.5 458.3 261 456.8 260.8L446.6 258.8 457.1 251.8C457.8 251.6 458 251.1 458.2 250.7 458.7 249.9 458.7 248.8 458.3 248.6 457.4 247.1 455.9 246.8 454.6 247.2L444 254.2 446.3 244.6C446.5 243.1 445.7 241.6 444.2 241.3 443.1 241.3 441.6 242.2 441.6 243.2L438.2 258.2 423.7 267.5 430.9 233.5C431.2 232 430.1 230.9 428.8 230.2 427.8 230.2 426.2 231.1 426 232.6ZM386.7 272.3L403.4 280.8 406 282.2 406.1 284.9 407 303.2 407 306.4 404.6 307.9 389.3 317.8 386.9 319.3 384.3 318 367.7 309.4 365.1 308.1 364.9 305.3 364 287.1 363.9 284.3 366.4 282.4 381.8 272.5 384.2 271 386.7 272.3Z" fill="rgba(102, 204, 255, 1)"></path><path d="M1050.6 278.5L1051.4 267.4 1057.1 270.9C1057.7 271.3 1058.7 271.1 1059.4 270.4 1059.7 269.6 1059.5 268.6 1058.7 268.3L1051.6 263.6 1051.8 254.9 1066.5 264.6C1067.4 264.9 1068.4 264.7 1068.8 264.2 1069.4 263.2 1069.2 262.2 1068.3 261.9L1052.1 251.2 1052.8 237.9 1064.6 247.6 1063.6 232.3 1074.8 239.5 1074 258.9C1073.7 259.1 1073.9 259.4 1074 259.7 1074.3 260.2 1074.9 260.7 1075.6 260.6 1076.3 260.6 1077 259.9 1077.3 259.1L1078 241.4 1085.2 246.4 1084.9 254.8C1084.7 255.3 1084.9 255.5 1085 255.8 1085.2 256.1 1085.7 256.5 1086.5 256.5 1087.2 256.5 1087.9 255.8 1087.9 255.1L1088.4 248.3 1097.9 254.3C1098.6 255 1099.5 254.5 1100.2 253.8 1100.6 253.2 1100.4 252.2 1099.4 251.7L1090.2 245.6 1096.2 242.5C1097 242.1 1097.2 241 1096.9 240.4 1096.4 239.5 1095.6 239.3 1094.7 239.7L1087 243.6 1079.8 238.7 1095.2 230.8C1096 230.4 1096.3 229.5 1095.9 228.7 1095.6 228.1 1094.6 227.5 1093.7 228L1076.7 236.7 1065.4 229.6 1079.5 224.1 1066 217.4 1077.9 211.2 1094.1 221.7C1095.1 222.2 1096 221.8 1096.4 221.2 1096.8 220.6 1096.6 219.6 1095.9 218.9L1081.1 209.6 1088.8 205.7 1096.1 210.2C1096.8 210.9 1097.8 210.7 1098.4 209.7 1098.8 209.2 1098.7 208.2 1097.7 207.6L1092.2 203.9 1102.1 198.8C1103 198.4 1103.3 197.5 1102.8 196.7S1101.5 195.5 1100.7 196L1090.7 201.1 1090.9 194.5C1091.1 193.4 1090.3 192.7 1089.6 192.7 1088.5 192.5 1087.8 193.3 1087.9 194.3L1087.3 202.8 1079.6 206.8 1080.7 189.3C1080.6 188.3 1079.8 187.6 1079.1 187.6 1078 187.5 1077.3 188.2 1077.4 189.2L1076.5 208.4 1064.5 214.5 1066.9 199.6 1054.3 207.9 1055 194.6 1072.1 185.8C1072.9 185.4 1073.1 184.3 1072.8 183.7 1072.3 182.8 1071.5 182.6 1070.6 183L1055 191 1055.4 182.2 1063.1 178.2C1064 177.8 1064.3 176.9 1063.8 176.1 1063.5 175.5 1062.5 174.9 1061.7 175.4L1055.7 178.4 1056.1 167.4C1056.3 166.3 1055.6 165.6 1054.6 165.7 1053.8 165.7 1053 166.2 1053.1 167.2L1052.4 178.3 1046.6 174.8C1046.1 174.4 1045.1 174.5 1044.6 175.1 1044.2 175.7 1044.2 176.4 1044.4 176.7 1044.5 177 1044.7 177.3 1045.1 177.4L1052.2 182 1052 190.8 1037.3 181.1C1036.4 180.8 1035.4 180.9 1035 181.5 1034.6 182.1 1034.6 182.8 1034.9 183.4 1035 183.7 1035 183.7 1035.4 183.8L1051.7 194.5 1051 207.8 1039.2 198.1 1040.2 213.4 1028.9 206.2 1029.7 186.7C1029.7 186 1029.3 185.2 1028.1 185 1027.4 185 1026.7 185.8 1026.4 186.6L1025.8 204.2 1018.6 199.3 1018.9 190.9C1019.2 190 1018.5 189.3 1017.3 189.2 1016.6 189.2 1015.9 189.9 1015.6 190.7L1015.4 197.3 1005.9 191.4C1005.2 190.7 1004.3 191.2 1003.6 191.9 1003.5 192.3 1003.5 193 1003.6 193.3 1003.8 193.6 1003.9 193.9 1004.3 194L1013.6 200.1 1007.6 203.1C1006.7 203.6 1006.6 204.7 1006.9 205.3L1006.9 205.3C1007.3 206.2 1008.2 206.4 1009.1 206L1016.7 202 1023.9 207 1008.6 214.9C1007.7 215.3 1007.4 216.2 1007.9 217S1009.2 218.2 1010 217.7L1027.1 208.9 1038.4 216.1 1024.3 221.6 1037.8 228.3 1025.8 234.4 1009.7 224C1008.7 223.5 1007.8 223.9 1007.4 224.5 1007 225 1007.1 226 1007.8 226.8L1022.4 236.2 1015 240 1007.7 235.5C1006.9 234.8 1005.9 234.9 1005.4 235.9 1004.9 236.5 1005.1 237.5 1005.8 238.2L1011.6 241.7 1001.6 246.9C1000.8 247.3 1000.5 248.2 1000.9 249S1002.2 250.1 1003.1 249.7L1013.1 244.6 1012.8 251.2C1012.7 251.6 1012.8 251.9 1013 252.2 1013.3 252.7 1013.7 252.9 1014.1 253 1015.3 253.2 1016 252.4 1015.8 251.4L1016.5 242.8 1024.2 238.9 1023.1 256.4C1023.2 256.6 1023.3 256.9 1023.5 257.2 1023.8 257.8 1024.2 257.9 1024.6 258.1 1025.8 258.2 1026.5 257.5 1026.3 256.5L1027.3 237.3 1039.2 231.1 1036.8 246 1049.5 237.8 1048.8 251.1 1031.7 259.8C1030.8 260.3 1030.7 261.4 1031 262 1031.4 262.8 1032.3 263.1 1033.1 262.7L1048.5 254.8 1048.3 263.5 1040.6 267.5C1039.8 267.9 1039.5 268.8 1039.9 269.6S1041.2 270.8 1042.1 270.3L1048.1 267.2 1047.6 278.3C1047.5 278.7 1047.6 279 1047.8 279.3 1047.9 279.6 1048.5 280 1049.2 280 1049.9 280 1050.8 279.5 1050.6 278.5ZM1041 239.6L1043.1 227.4 1032 221.9 1043.7 217.3 1042.8 205.2 1052.5 212.8 1062.7 206.1 1060.7 218.3 1071.8 223.8 1060.4 228.2 1061 240.5 1051.6 232.7 1041 239.6Z" fill="rgba(102, 204, 255, 1)"></path><path d="M47.2 274.7L71.8 284.7 74.8 291.3 65.1 304.4 57.6 303.6 41.3 282.7C41.1 282.5 41.1 282.5 40.8 282.3 40.3 281.9 39.6 281.8 38.8 282.4 38.2 283.2 38.1 283.9 38.6 284.7L53 303 41.6 301.6 35.1 293.7C35.1 293.7 34.9 293.5 34.9 293.5 34.4 293.1 33.7 293 32.8 293.5 32.2 293.9 32.1 295 32.7 295.8L36.7 301.2 28.3 300.1C27.6 300 26.8 300.6 26.5 301.6S27.2 303.3 28.1 303.6L36.3 304.5 31.2 308.7C30.3 309.2 30.3 310.4 30.8 311.2 31.4 311.6 32.3 311.9 33.1 311.3L41.1 304.9 52.8 306.4 34.5 320.7C33.7 321.3 33.6 322.5 34 323.1 34.7 323.7 35.7 324 36.5 323.4L57.2 306.9 64.9 307.8 71.1 322.5 66.5 328.6 40.4 332.7C39.5 332.8 38.9 333.6 39 334.5S39.9 336 40.8 335.8L63.9 332.2 56.8 341.7 46.9 343.2C46 343.3 45.5 344.1 45.4 345.2S46.3 346.7 47.2 346.6L54.1 345.3 49 352.2C48.4 353 48.8 354.1 49.5 354.7 50.3 355.3 51.2 355.1 51.8 354.4L56.9 347.4 57.9 354.1C57.9 355.3 58.6 355.9 59.7 355.5 60.6 355.3 61.2 354.6 61.1 353.7L59.6 343.8 66.7 334.3 69.8 357.4C70 358.3 71 359.1 71.9 359S73.4 358.1 73.2 357.2L69.4 330.7 74 324.6 90 326.6 92.9 333.5 83 358C82.6 359 83.2 359.8 84 360.4 84.9 360.7 85.8 360.1 86.3 359.4L94.9 337.8 99.4 348.3 95.5 357.8C95.2 358.8 95.8 359.6 96.5 360.2 97.2 360.3 98.3 359.9 98.6 358.9L101.2 352.9 104.6 360.6C104.9 361.2 105.9 361.6 106.8 361.4 107.6 360.8 107.9 359.9 107.6 359.2L104.2 351.5 110.7 354C111.4 354.1 112.5 353.7 112.6 353 113.2 352.2 112.9 351.6 112.1 351 112.1 351 111.9 350.8 111.9 350.8L102.4 347 97.9 336.4 119.5 344.9C120.4 345.3 121.3 345.1 121.6 344.2 121.9 343.2 121.6 342.6 121.1 342.2 120.9 342 120.9 342 120.9 342L95.9 332.1 93 325.2 102.8 312.2 110 313.2 126.8 334C127.1 334.7 128.3 334.7 128.9 334.4 129.7 333.8 129.8 332.7 129.2 331.8L114.9 313.6 126.3 314.9 132.7 322.9C133.3 323.7 134.2 324 134.8 323.3 135.6 322.7 135.7 321.5 135.4 320.9L131 315.6 139.3 316.7C140.2 316.5 141.1 315.9 141.4 315 141.3 314.5 141 313.9 140.5 313.5 140.2 313.3 140.2 313.3 139.8 313.4L131.4 312.3 136.7 307.9C137.5 307.3 137.4 306.4 137.1 305.8 136.8 305.6 136.8 305.6 136.6 305.4 136 305 135.3 304.9 134.7 305.2L126.7 311.6 115.3 310.3 133.6 296C134.2 295.2 134.5 294.3 133.7 293.7 133.6 293.2 133.6 293.2 133.4 293.1 132.9 292.7 132 292.8 131.3 293.1L110.5 309.9 103.2 308.9 96.7 294.1 101.1 288.2 127.5 284.3C128.4 284.2 129.2 283.1 129.1 282.2S127.9 280.6 127 280.7L104 284.3 110.9 275.1 120.9 273.4C121.8 273.2 122.4 272.5 122.2 271.6 122.1 270.7 121.3 270.1 120.5 270.2L113.7 271.2 118.9 264.3C119.3 263.8 119.3 262.6 118.6 262.1 117.8 261.5 116.5 261.7 116.1 262.2L110.9 269.1 109.9 262.4C109.9 262 109.8 261.5 109.5 261.3 109 260.9 108.6 261 108.1 261.1 107.2 261.2 106.7 262 106.8 262.9L108 273 101.2 282.2 98 259.1C98 258.7 97.7 258.5 97.2 258.1 96.9 257.9 96.7 257.7 96.2 257.8 95.3 257.9 94.6 258.9 94.7 259.8L98.3 286.1 93.9 292 78.1 290.1 74.8 283.3 84.9 258.5C85 257.8 84.9 256.9 84.4 256.5 84.1 256.3 84.1 256.3 83.9 256.6 83.2 256 82.1 256.4 81.8 257.4L73.2 279 68.5 268.2 72.4 258.7C72.5 258 72.2 257.4 71.6 257 71.6 257 71.4 256.8 71.4 256.8 70.6 256.2 69.5 256.6 69.2 257.6L66.7 264.1 63.3 256.4C63.3 255.9 63 255.8 62.7 255.6 62.2 255.2 61.5 255.1 61.3 255.3 60.2 255.7 59.9 256.7 60.1 257.6L63.5 265.3 57.4 262.7C56.4 262.4 55.3 262.8 55 263.8 54.9 264.5 55.3 265.6 56 265.7L65.5 269.6 70 280.1 48.4 271.6C47.4 271.3 46.6 271.9 46 272.6 45.9 273.3 46.3 274.4 47.2 274.7ZM69 305L76.5 294.9 77.6 293.4 79.5 293.6 91.6 295 93.7 295.4 94.4 297.1 99.3 308.3 100 310 98.8 311.6 91.4 321.6 90.2 323.1 88.4 322.9 76.3 321.5 74.4 321.3 73.4 319.4 68.6 308.2 67.9 306.5 69 305Z" fill="rgba(102, 204, 255, 1)"></path><path d="M1347.5 293.9L1357.8 289.5 1357.3 296.2C1357.2 296.9 1357.8 297.7 1358.7 298 1359.6 297.9 1360.5 297.3 1360.3 296.4L1361.3 288 1369.1 284.2 1367.1 301.7C1367.3 302.6 1367.9 303.4 1368.6 303.6 1369.7 303.6 1370.5 303 1370.4 302.1L1372.6 282.7 1384.7 277.3 1381.4 292.3 1394.6 284.5 1393.3 297.7 1375.6 305.9C1375.3 305.7 1375.1 305.9 1374.9 306.2 1374.6 306.7 1374.5 307.4 1374.8 308.1 1375.1 308.7 1376.1 309 1377 308.8L1393 301.5 1391.9 310.1 1384.2 313.7C1383.7 313.7 1383.5 314 1383.3 314.2 1383.2 314.5 1383 315.2 1383.4 315.8 1383.7 316.5 1384.7 316.8 1385.3 316.4L1391.5 313.8 1390.6 325C1390.3 326 1391 326.5 1392 326.8 1392.7 326.9 1393.5 326.4 1393.6 325.2L1394.8 314.2 1400.2 318.2C1401 318.7 1402.1 318.3 1402.5 317.8 1403 317 1402.9 316.1 1402.1 315.6L1395.1 310.5 1396.3 301.9 1410.3 312C1411 312.5 1411.9 312.4 1412.5 311.6 1412.9 311.1 1412.9 310 1412.1 309.4L1396.6 298.1 1397.9 284.9 1409.1 295 1409 279.9 1419.9 287.7 1417.9 306.9C1417.9 308 1418.6 308.6 1419.3 308.7 1420.1 308.8 1420.9 308.2 1421.2 307.2L1422.7 289.8 1429.7 294.9 1429.1 303.5C1428.7 304.4 1429.3 305.2 1430.5 305.3 1431.2 305.4 1432 304.8 1432.1 303.7L1432.8 297.1 1441.9 303.7C1442.7 304.2 1443.6 304.1 1444.2 303.3S1444.6 301.7 1443.8 301.1L1434.7 294.5 1440.7 291.7C1441.8 291.3 1442.1 290.4 1441.7 289.7 1441.3 288.7 1440.4 288.3 1439.6 288.9L1431.6 292.3 1424.6 287.2 1440.7 280.3C1441.5 279.7 1441.8 278.7 1441.5 278.1 1441.1 277 1440.1 276.7 1439.3 277.3L1421.8 285.2 1410.9 277.3 1425.3 272.7 1412.1 265.2 1424.3 259.8 1439.9 271C1440.7 271.6 1441.7 271.2 1442.1 270.7 1442.7 269.9 1442.5 269 1441.8 268.4L1427.5 258.1 1435.6 254.5 1442.6 259.6C1443.4 260.1 1444.3 260 1444.9 259.2 1445.2 258.7 1445.3 257.5 1444.5 257L1439.1 253 1449.1 248.4C1450.2 248 1450.5 247.1 1449.9 246.3 1449.5 245.6 1448.8 245.1 1448 245.6L1437.7 250.1 1438.2 243.3C1438.3 242.6 1437.7 241.8 1437 241.7 1436.3 241.6 1435.7 241.9 1435.5 242.2 1435.3 242.4 1435.1 242.7 1435.2 243.1L1434.2 251.5 1426.4 255.3 1428.4 237.8C1428.2 236.9 1427.6 236.1 1426.9 236 1426.2 235.9 1425.6 236.2 1425.2 236.7 1425 237 1425 237 1425.1 237.4L1422.9 256.8 1410.7 262.2 1414.1 247.2 1400.9 255 1402.2 241.8 1419.9 233.7C1420.5 233.3 1421.1 232.5 1420.7 231.5 1420.4 230.8 1419.4 230.5 1418.5 230.7L1402.5 238.1 1403.6 229.4 1411.3 225.9C1412.2 225.7 1412.5 224.8 1412.1 223.7 1411.8 223 1410.8 222.7 1409.9 222.9L1403.9 225.7 1404.9 214.5C1405.2 213.6 1404.4 213 1403.5 212.7 1403 212.8 1402.4 213.1 1402.2 213.4 1402 213.6 1401.8 213.9 1401.9 214.3L1400.7 225.3 1395.2 221.4C1394.5 220.8 1393.4 221.2 1393 221.7L1393 221.7C1392.4 222.5 1392.6 223.4 1393.4 223.9L1400.4 229 1399.2 237.7 1385.2 227.5C1384.4 227 1383.6 227.1 1383 227.9S1382.6 229.6 1383.3 230.1L1398.9 241.4 1397.6 254.7 1386.4 244.5 1386.5 259.7 1375.6 251.8 1377.6 232.7C1377.6 231.5 1376.8 231 1376.1 230.8 1375.4 230.7 1374.6 231.3 1374.3 232.3L1372.5 249.5 1365.7 244.7 1366.4 236.1C1366.7 235.1 1366.1 234.3 1365 234.2 1364.3 234.1 1363.5 234.7 1363.2 235.7L1362.6 242.4 1353.6 235.8C1352.8 235.3 1351.9 235.4 1351.3 236.2S1350.9 237.9 1351.7 238.4L1360.8 245 1354.8 247.8C1354.3 247.9 1354.2 248.1 1354 248.4 1353.6 248.9 1353.7 249.3 1353.7 249.8 1354.1 250.9 1355.1 251.2 1355.9 250.6L1363.9 247.2 1370.9 252.3 1354.8 259.2C1354.6 259.5 1354.4 259.8 1354.2 260 1353.9 260.5 1353.9 261 1354 261.4 1354.4 262.5 1355.4 262.8 1356.2 262.2L1373.7 254.4 1384.6 262.2 1370.2 266.8 1383.4 274.4 1371.2 279.8 1355.6 268.5C1354.8 268 1353.7 268.4 1353.4 268.9 1352.8 269.6 1352.9 270.5 1353.7 271.1L1367.7 281.2 1359.9 285 1352.9 280C1352.1 279.4 1351.2 279.5 1350.6 280.3S1350.2 282 1351 282.5L1356.4 286.5 1346.4 291.1C1345.9 291.1 1345.8 291.4 1345.6 291.7 1345.4 291.9 1345.3 292.6 1345.6 293.3 1345.9 293.9 1346.7 294.5 1347.5 293.9ZM1377.9 267.7L1389.7 263.9 1389.5 251.6 1398.9 259.9 1409.4 253.7 1407 265.8 1417.6 271.8 1405.8 275.6 1405.9 287.9 1396.8 279.8 1386.1 285.8 1388.8 274 1377.9 267.7Z" fill="rgba(102, 204, 255, 1)"></path><path d="M1396.8 471.4L1387.7 480 1385.5 471.8C1385.3 471 1384.3 470.2 1383 470.3 1382 470.8 1381.3 471.9 1381.5 472.8L1384.2 483.5 1375.6 491.5 1370.3 469.5C1369.9 468.1 1368.8 467.4 1367.8 468 1366.6 468 1365.9 469.1 1366.3 470.4L1372.2 494.6 1364.6 502 1341.2 495.2 1338.8 486.2 1358.2 468.1C1358.3 467.7 1358.5 467.3 1358.6 466.9 1358.7 466.6 1358.5 465.7 1358.2 465.2 1357.3 464.1 1356.1 464.1 1355.3 465.2L1337.6 481.7 1335 470.5 1343.8 461.8C1344.2 461.9 1344.3 461.6 1344.4 461.2 1344.6 460.4 1344.5 459.5 1343.8 458.9 1343.2 458.3 1341.9 458.4 1340.9 458.9L1333.8 466 1330.4 452.1C1330.2 451.2 1329.2 450.5 1327.9 450.5 1326.9 451.1 1326.2 452.1 1326.4 453L1329.7 466 1321.6 463.7C1320.5 463.4 1319.3 464.3 1319.1 465.1 1318.8 466.2 1319.2 467.6 1320.4 467.9L1330.7 470.9 1333.3 482.1 1311.8 475.9C1310.7 475.5 1309.7 476.1 1309.3 477.2 1309 478.4 1309.6 479.4 1310.7 479.7L1334.5 486.6 1337.2 496.1 1319.4 513 1310.5 510.5 1304.4 485.8C1304.3 484.5 1302.9 483.7 1301.9 484.2 1300.6 484.3 1300.3 485.4 1300.3 486.7L1305.9 509.1 1294.8 505.9 1292.2 494.7C1292 493.8 1290.6 493 1289.7 493.2S1288 494.8 1288.1 496L1290.2 504.6 1276.7 500.6C1275.6 500.3 1274.5 501.2 1274.1 502.4 1273.9 503.2 1274.3 504.5 1275.5 504.9L1288.9 508.8 1282.5 515.2C1281.9 515.9 1281.5 517 1282.5 518.1 1283.1 518.8 1284.8 518.8 1285.4 518.2L1293.5 510.1 1304.7 513.4 1288 529.3C1287.2 530.4 1286.9 531.5 1287.8 532.6 1288.5 533.2 1290.1 533.3 1290.7 532.6L1309.3 514.7 1318.1 517.3 1324.1 541.1 1316.8 547.7 1293 540.8C1291.8 540.4 1290.8 541 1290.5 542.1 1290.2 543.3 1290.6 544.7 1291.7 545L1313.2 551.2 1305.1 559.3 1294.7 556.3C1293.6 555.9 1292.6 556.5 1292.2 557.6 1291.9 558.8 1292.4 559.8 1293.6 560.1L1301.7 562.5 1291.9 571.7C1291.3 572.4 1291.2 574 1291.9 574.6 1292.9 575.3 1294.1 575.7 1294.8 574.6L1305.1 565.1 1307.3 574.5C1307.9 575.5 1308.9 576.2 1309.8 576.1 1310.7 575.9 1311.3 575.3 1311.5 574.5 1311.5 574.5 1311.6 574.1 1311.3 573.6L1308.6 561.6 1316.8 553.5 1322.9 577C1322.9 578.2 1323.9 578.9 1325.3 578.5 1325.8 578.2 1326.3 578 1326.5 577.2 1326.6 576.8 1326.8 576.4 1326.9 576L1320.2 550.3 1327 544 1350.4 550.8 1352.9 561.1 1334.9 578.4C1333.8 579.3 1333.9 580.6 1334.9 581.3 1335.5 582.3 1336.7 582.2 1337.8 581.3L1354.1 565.6 1357 576.9 1349 584.5C1348.4 585.2 1348.4 586.5 1349 587.5 1350 588.2 1351.2 588.5 1351.9 587.5L1358.1 581.8 1361.2 593.9C1361.3 595.2 1362.4 595.5 1363.7 595.5 1364.2 595.2 1364.8 594.6 1365 593.8 1365 593.8 1365.1 593.4 1365.3 593L1362 580 1371.6 582.8C1372.3 583 1373.7 582.6 1374 581.4 1374.4 580.3 1373.5 579.2 1372.7 578.9L1360.8 575.5 1357.8 564.2 1381.2 571C1382.4 571.3 1383.5 570.4 1383.8 569.3S1383.6 567.1 1382.5 566.8L1356.7 559.3 1354.5 549.9 1372.3 533 1382.3 535.9 1388.3 561C1388.9 562 1389.9 562.7 1391.2 562.6 1391.7 562.4 1392.3 561.7 1392.5 560.9 1392.6 560.6 1392.7 560.2 1392.4 559.7L1386.9 537.2 1398 540.5 1401 551.7C1401.2 552.6 1402.2 553.3 1403.5 553.3 1404.4 552.8 1405.2 551.7 1405 550.8L1402.6 541.8 1414.9 545.4C1415.7 545.6 1417.2 544.8 1417.4 544 1417.7 542.9 1416.9 541.4 1416.1 541.2L1403.9 537.6 1410.6 531.6C1410.7 531.2 1410.8 530.9 1410.9 530.5 1411.1 529.7 1411 528.8 1410.7 528.3 1409.7 527.6 1408.4 527.7 1407.4 528.2L1399.2 536.2 1388.1 533 1404.8 517C1405.9 516.1 1405.9 514.8 1405.2 514.2 1404.3 513.1 1403 513.2 1402 513.7L1383.5 531.7 1373.5 528.8 1367.5 505 1374.5 498.2 1400.2 505.7C1401.4 506 1402.4 505.5 1402.7 504.3 1403 503.2 1402.5 502.2 1401.3 501.9L1377.9 495.1 1386.4 487.1 1398.4 490.6C1399.1 490.8 1400.6 490 1400.9 488.8 1401.3 487.7 1400.3 486.6 1399.6 486.4L1390 483.6 1399.7 474.3C1399.9 473.9 1399.9 473.9 1400 473.6 1400.2 472.8 1400 471.9 1399.8 471.4 1398.7 470.7 1397.4 470.7 1396.8 471.4ZM1368.9 527.4L1369.4 530.1 1367.7 531.7 1353.3 545.4 1351.6 547 1349.3 546.3 1330.4 540.8 1328.1 540.2 1327.5 537.9 1322.7 518.6 1322.1 516.3 1324 514.4 1338.2 501 1340.1 499.1 1342.4 499.7 1361.2 505.2 1363.5 505.9 1364 508.5 1368.9 527.4Z" fill="rgba(102, 204, 255, 1)"></path><path d="M438.8 471.7L468.5 486.6 477.6 514.7 448.7 508.6 430.8 480.6C430.8 480.6 430.5 480.3 430.5 480.3 429.9 479.8 428.7 479.9 427.9 480.2 426.8 480.8 426.6 482.2 427.5 483L443.2 507.4 429.2 504.5 422.1 493.8C422.1 493.8 421.8 493.5 421.8 493.5 421.2 493 420.1 493.1 419.3 493.4 418.2 494 417.9 495.4 418.8 496.2L423.5 503.6 413.2 501.3C412.3 501.1 410.9 502 410.7 502.9 410.2 504.1 411.4 505.1 412.2 505.4L422.6 507.7 415.1 512.3C414 512.9 413.8 514.3 414.7 515.1 415.4 516.2 416.8 516.5 417.6 515.6L428.3 508.5 442 511.7 417.6 527.5C416.5 528.1 416.3 529.5 417.2 530.3 417.9 531.4 419.3 531.6 420.1 530.7L448 512.8 477 519 456.9 541.3 423.6 543C422.4 543.1 421.6 544 421.7 545.1 421.7 546.2 422.6 547 423.8 547L453.1 545.4 443.5 556.1 431.1 556.8C429.9 556.8 429.1 557.7 429.2 558.9 429.3 560 430.2 560.8 431.3 560.7L439.8 560.3 432.3 568.6C431.2 569.2 431.5 570.6 432.4 571.4 433.3 572.2 434.4 572.2 435.2 571.3L442.2 563.6 442.6 572C442.7 573.2 443.6 574 444.7 573.9S446.7 573 446.6 571.8L445.9 559.4 455.6 548.7 457.1 578.1C457.2 579.2 458.1 580 459.2 579.9 460.3 579.9 461.1 579 461.1 577.9L459.3 544.5 479.1 522.5 488.3 550.7 473.6 579.5C473.1 580.6 473.7 581.7 474.6 582.5 475.8 583 476.9 582.4 477.7 581.5L490.8 555.6 495.2 569.3 489.3 580.6C488.7 581.8 489.4 582.9 490.3 583.7 491.4 584.2 492.5 583.6 493.1 583L496.9 575.1 500.3 585.2C500.6 586 501.8 587.1 502.9 586.4 504 585.8 504.8 584.9 504.2 583.8L500.8 573.8 508.6 577.6C509.8 578.1 510.9 577.5 511.4 576.9 511.7 576.1 511.6 574.9 511 574.4 511 574.4 510.7 574.1 510.7 574.1L499.4 568.2 495 554.6 520.9 567.6C522 568.2 523.1 567.5 523.7 566.9 523.9 566.1 523.8 564.9 523.2 564.4 523.2 564.4 522.9 564.1 522.9 564.1L493.3 549.3 484.2 521.1 513.1 527.3 531 555.2C531.6 556.3 533 556.5 533.8 555.6 534.9 555 535.1 553.6 534.2 552.8L518.5 528.4 532.6 531.3 539.6 542C540.3 543.1 541.7 543.3 542.5 542.4 543.6 541.8 543.8 540.4 542.9 539.6L538.3 532.2 548.6 534.5C549.4 534.7 550.8 533.8 551 532.9 551.3 532.1 551 531.2 550.4 530.7 550.1 530.4 549.8 530.2 549.2 530.2L538.9 527.9 546.3 523.3C547.4 522.6 547.6 521.2 546.7 520.4 546.7 520.4 546.4 520.1 546.4 520.1 545.8 519.6 544.7 519.7 543.9 520L533.2 527.1 519.1 524.1 543.5 508.4C544.6 507.8 544.8 506.3 543.9 505.5 543.9 505.5 543.7 505.3 543.7 505.3 543.1 504.7 541.9 504.8 541.1 505.1L513.1 523 484.2 516.9 504 494.9 537.4 493.1C538.5 493.1 539.3 492.2 539.2 491.1 539.2 489.9 538.3 489.1 537.1 489.2L508 490.4 517.7 479.7 530.1 479.1C531.2 479 532 478.1 532 477S531 475.1 529.9 475.1L521.4 475.6 528.4 467.8C529.2 466.9 529.1 465.8 528.2 465 527.3 464.2 526.2 464.3 525.4 465.2L518.4 472.9 518 464.4C518 463.9 517.9 463.3 517.3 462.8S516.2 462.2 515.6 462.3C514.5 462.3 513.7 463.2 513.8 464.4L514.4 476.8 504.8 487.5 503.2 458.1C503.2 457.5 503.2 457 502.6 456.4 502.3 456.2 501.4 455.9 500.8 456 499.7 456 498.9 456.9 499 458L500.7 491.4 480.9 513.4 471.8 485.2 486.7 455.6C486.9 454.7 486.8 453.6 486.3 453.1 486.3 453.1 486 452.8 486 452.8 484.8 452.3 483.7 452.9 483.2 453.5L470.1 479.4 465.7 465.7 471.6 454.4C471.8 453.5 471.8 452.4 471.2 451.9 471.2 451.9 470.9 451.6 470.9 451.6 469.7 451.1 468.6 451.7 468.1 452.3L464.2 460.2 460.9 450.1C460.6 449.9 460.6 449.3 460.3 449 459.7 448.5 458.8 448.3 458 448.6 456.9 449.2 456.1 450.1 456.7 451.2L460.1 461.2 452.2 457.4C451 456.9 449.9 457.5 449.4 458.1 448.9 459.3 449.5 460.4 450.1 460.9L461.5 466.8 465.9 480.5 440 467.4C438.8 466.9 437.7 467.5 437.2 468.1 437.3 469.8 437.6 471.2 438.8 471.7Z" fill="rgba(102, 204, 255, 1)"></path><path d="M1002.3 385.5L1026.6 396.3 1034.9 418.4 1011.6 414.6 996.2 393C996.2 393 996 392.8 996 392.8 995.5 392.4 994.6 392.5 993.9 392.7 993.1 393.3 993 394.4 993.7 395L1007.2 413.9 995.9 412.1 989.8 403.8C989.8 403.8 989.6 403.6 989.6 403.6 989.1 403.2 988.2 403.3 987.5 403.6 986.7 404.2 986.5 405.3 987.3 405.9L991.3 411.7 982.9 410.2C982.2 410.1 981.2 410.8 981 411.5 980.7 412.5 981.7 413.3 982.4 413.5L990.7 414.9 984.9 418.9C984.1 419.4 984 420.6 984.7 421.2 985.3 422 986.4 422.2 987 421.4L995.3 415.4 1006.4 417.4 987.5 430.9C986.7 431.5 986.5 432.6 987.3 433.2 987.8 434.1 989 434.2 989.6 433.4L1011.2 418.1 1034.6 421.9 1019.4 440.5 992.8 443.1C991.9 443.2 991.3 443.9 991.4 444.8 991.5 445.7 992.2 446.4 993.1 446.3L1016.6 443.9 1009.3 452.8 999.3 453.8C998.4 453.9 997.8 454.7 997.9 455.6 998 456.5 998.8 457.1 999.7 457L1006.4 456.3 1000.7 463.2C999.9 463.8 1000.2 464.9 1001 465.5 1001.7 466.1 1002.6 466 1003.2 465.3L1008.5 458.8 1009.2 465.6C1009.3 466.5 1010 467.1 1010.9 467S1012.4 466.2 1012.3 465.3L1011.3 455.4 1018.6 446.4 1021 469.9C1021.1 470.8 1021.8 471.4 1022.7 471.3 1023.6 471.2 1024.2 470.4 1024.1 469.5L1021.5 443 1036.5 424.7 1044.8 446.8 1034.2 470.4C1033.8 471.3 1034.4 472.2 1035.1 472.8 1036.1 473.1 1036.9 472.6 1037.5 471.8L1047 450.7 1051 461.4 1046.7 470.7C1046.4 471.6 1046.9 472.5 1047.7 473.1 1048.6 473.5 1049.5 472.9 1049.9 472.4L1052.6 466 1055.7 473.9C1056 474.5 1057 475.4 1057.8 474.8 1058.7 474.3 1059.3 473.5 1058.8 472.7L1055.7 464.8 1062.1 467.6C1063.1 467.9 1063.9 467.4 1064.3 466.9 1064.5 466.2 1064.4 465.3 1063.9 464.9 1063.9 464.9 1063.7 464.7 1063.7 464.7L1054.4 460.4 1050.3 449.6 1071.5 459.1C1072.5 459.5 1073.3 458.9 1073.7 458.4 1073.9 457.7 1073.8 456.8 1073.3 456.4 1073.3 456.4 1073 456.2 1073 456.2L1048.8 445.5 1040.4 423.3 1063.8 427.2 1079.1 448.8C1079.7 449.7 1080.8 449.8 1081.4 449 1082.3 448.5 1082.4 447.3 1081.6 446.7L1068.2 427.8 1079.5 429.7 1085.5 437.9C1086.1 438.8 1087.2 438.9 1087.8 438.2 1088.7 437.6 1088.8 436.5 1088.1 435.9L1084.1 430.1 1092.4 431.6C1093.1 431.7 1094.2 430.9 1094.3 430.2 1094.5 429.5 1094.2 428.9 1093.7 428.5 1093.4 428.3 1093.2 428.1 1092.7 428.1L1084.4 426.7 1090.2 422.7C1091 422.2 1091.1 421 1090.4 420.4 1090.4 420.4 1090.1 420.2 1090.1 420.2 1089.6 419.8 1088.7 419.9 1088.1 420.2L1079.8 426.2 1068.5 424.4 1087.4 410.9C1088.2 410.4 1088.4 409.2 1087.6 408.6 1087.6 408.6 1087.4 408.4 1087.4 408.4 1086.9 408 1086 408.1 1085.3 408.4L1063.7 423.8 1040.3 419.9 1055.3 401.6 1081.9 399C1082.8 398.9 1083.4 398.1 1083.3 397.2 1083.2 396.3 1082.5 395.7 1081.6 395.8L1058.3 397.9 1065.6 389 1075.5 388C1076.4 387.9 1077.1 387.2 1077 386.3S1076.1 384.8 1075.2 384.8L1068.5 385.5 1073.7 379.1C1074.3 378.3 1074.3 377.4 1073.5 376.8 1072.8 376.2 1071.9 376.3 1071.3 377.1L1066 383.5 1065.3 376.7C1065.3 376.3 1065.2 375.8 1064.7 375.4S1063.8 375.1 1063.3 375.1C1062.4 375.2 1061.8 376 1061.9 376.9L1062.9 386.8 1055.6 395.7 1053.3 372.3C1053.2 371.8 1053.2 371.4 1052.7 371 1052.4 370.8 1051.7 370.6 1051.3 370.6 1050.4 370.7 1049.8 371.5 1049.9 372.4L1052.5 398.9 1037.5 417.3 1029.2 395.1 1039.9 370.9C1040.1 370.2 1040 369.3 1039.5 368.9 1039.5 368.9 1039.3 368.7 1039.3 368.7 1038.3 368.3 1037.5 368.8 1037.1 369.3L1027.6 390.5 1023.6 379.8 1027.9 370.5C1028 369.8 1027.9 368.9 1027.4 368.5 1027.4 368.5 1027.2 368.3 1027.2 368.3 1026.2 367.9 1025.4 368.5 1025 368.9L1022.2 375.4 1019.1 367.5C1018.9 367.3 1018.8 366.8 1018.6 366.6 1018.1 366.2 1017.4 366.1 1016.8 366.4 1015.9 366.9 1015.3 367.6 1015.8 368.5L1018.9 376.4 1012.5 373.6C1011.5 373.2 1010.7 373.8 1010.3 374.3 1009.9 375.2 1010.5 376.1 1010.9 376.5L1020.2 380.8 1024.3 391.5 1003.1 382.1C1002.1 381.7 1001.3 382.2 1000.9 382.7 1001 384.1 1001.4 385.2 1002.3 385.5Z" fill="rgba(102, 204, 255, 1)"></path></g><defs><mask id="SvgjsMask1004"><rect width="1440" height="560" fill="#ffffff"></rect></mask><filter id="SvgjsFilter1005"><feGaussianBlur stdDeviation="1"></feGaussianBlur></filter></defs></svg>